<?xml version="1.0" encoding="UTF-8"?>
<svg version="1.1" xmlns="http://www.w3.org/2000/svg" width="1536" height="1024">
<path d="M0 0 C506.88 0 1013.76 0 1536 0 C1536 337.92 1536 675.84 1536 1024 C1029.12 1024 522.24 1024 0 1024 C0 686.08 0 348.16 0 0 Z " fill="#FEFEFE" transform="translate(0,0)"/>
<path d="M0 0 C11.566773 8.42469545 19.56422494 20.24885357 22.95703125 34.18359375 C25.41289337 51.16997342 23.11868979 67.00159926 13.42578125 81.42578125 C5.19566232 91.56114031 -4.63705469 98.07235168 -17.57421875 100.42578125 C-32.53768685 101.96994398 -44.31515173 99.50883273 -56.39453125 90.23046875 C-58.57421875 88.42578125 -58.57421875 88.42578125 -60.57421875 86.42578125 C-60.57421875 103.25578125 -60.57421875 120.08578125 -60.57421875 137.42578125 C-69.15421875 137.42578125 -77.73421875 137.42578125 -86.57421875 137.42578125 C-86.57421875 90.56578125 -86.57421875 43.70578125 -86.57421875 -4.57421875 C-77.99421875 -4.90421875 -69.41421875 -5.23421875 -60.57421875 -5.57421875 C-60.24421875 -1.28421875 -59.91421875 3.00578125 -59.57421875 7.42578125 C-58.66671875 6.39453125 -57.75921875 5.36328125 -56.82421875 4.30078125 C-42.1679111 -10.4454424 -17.01572978 -10.4056739 0 0 Z " fill="#3B35E9" transform="translate(1036.57421875,471.57421875)"/>
<path d="M0 0 C4.24019608 3.30269608 4.24019608 3.30269608 5.75 4.8125 C6.08 1.5125 6.41 -1.7875 6.75 -5.1875 C15.33 -5.1875 23.91 -5.1875 32.75 -5.1875 C32.75 28.4725 32.75 62.1325 32.75 96.8125 C24.17 96.8125 15.59 96.8125 6.75 96.8125 C6.42 93.1825 6.09 89.5525 5.75 85.8125 C4.595 86.885 3.44 87.9575 2.25 89.0625 C-8.42085687 98.36192632 -20.45535871 99.70376673 -34.13085938 99.0078125 C-46.12391659 97.9024616 -56.71320681 89.75148727 -64.25 80.8125 C-74.60039284 66.44625036 -77.06300595 50.56368922 -74.7890625 33.31640625 C-71.77165936 19.9510853 -64.78839874 8.04769431 -53.62890625 -0.1015625 C-36.67912161 -10.57585864 -16.71835223 -12.00015746 0 0 Z " fill="#3A34E9" transform="translate(889.25,473.1875)"/>
<path d="M0 0 C9.24 0 18.48 0 28 0 C41.7298633 33.37119552 54.73007402 67.01094256 67.3240509 100.82592773 C69.40684679 106.41676827 71.5024819 112.00266263 73.60546875 117.5859375 C74.17416665 119.09691893 74.74285186 120.60790515 75.31152344 122.11889648 C76.11728106 124.2596575 76.92344586 126.40025956 77.7310791 128.54031372 C78.4563084 130.46251809 79.1793902 132.3855323 79.90234375 134.30859375 C80.30960693 135.38939209 80.71687012 136.47019043 81.13647461 137.58374023 C82 140 82 140 82 141 C72.76 141 63.52 141 54 141 C49.80105288 131.55236898 46.41539667 121.7582762 43 112 C13.795 111.505 13.795 111.505 -16 111 C-16.33 112.65 -16.66 114.3 -17 116 C-17.65553079 117.9969079 -18.34733394 119.98211434 -19.06640625 121.95703125 C-19.42935791 122.95968018 -19.79230957 123.9623291 -20.16625977 124.99536133 C-20.62701904 126.25501709 -21.08777832 127.51467285 -21.5625 128.8125 C-23.7590625 134.8453125 -23.7590625 134.8453125 -26 141 C-35.24 141 -44.48 141 -54 141 C-50.62427686 129.74758953 -50.62427686 129.74758953 -48.9855957 125.37475586 C-48.61643036 124.38516373 -48.24726501 123.39557159 -47.86691284 122.37599182 C-47.47383942 121.33281296 -47.08076599 120.28963409 -46.67578125 119.21484375 C-46.25724884 118.09693954 -45.83871643 116.97903534 -45.40750122 115.82725525 C-44.04631385 112.1958921 -42.67979773 108.56656647 -41.3125 104.9375 C-40.83974426 103.68015597 -40.36709882 102.42277047 -39.89456177 101.16534424 C-31.45141829 78.70293104 -22.83562758 56.31108933 -14 34 C-13.70075623 33.24382385 -13.40151245 32.48764771 -13.09320068 31.70855713 C-11.11012894 26.69900871 -9.1205517 21.69208951 -7.125 16.6875 C-6.87297821 16.05463074 -6.62095642 15.42176147 -6.36129761 14.76971436 C-5.66218674 13.0162301 -4.96007931 11.26394144 -4.2578125 9.51171875 C-3.8673877 8.53678467 -3.47696289 7.56185059 -3.07470703 6.55737305 C-2.13941927 4.33176212 -1.07963949 2.15927899 0 0 Z " fill="#3A34EA" transform="translate(1144,429)"/>
<path d="M0 0 C0 9.24 0 18.48 0 28 C-2.83430215 26.86627914 -5.66590221 25.72558565 -8.48828125 24.5625 C-9.76298131 24.04156994 -11.0377217 23.52073856 -12.3125 23 C-12.93833984 22.73960937 -13.56417969 22.47921875 -14.20898438 22.2109375 C-22.01450049 19.04069711 -29.06513497 17.65365223 -37.5 17.6875 C-38.30308594 17.67138672 -39.10617187 17.65527344 -39.93359375 17.63867188 C-45.85466091 17.6338736 -52.01315522 18.22713396 -56.56420898 22.45214844 C-59.9074762 26.26198736 -59.9074762 26.26198736 -60.984375 30.98828125 C-60.35936742 37.51789738 -60.35936742 37.51789738 -57 43 C-48.91363316 48.41407346 -39.52290118 51.4096711 -30.48046875 54.80664062 C-14.05236374 61.09427039 -1.43750314 67.7646157 6.03515625 84.2890625 C9.62669448 93.7439957 8.58232397 103.66424663 5 113 C-1.73150899 125.23617222 -12.38601277 131.94250923 -25.40234375 136.08203125 C-47.06871183 141.28990593 -68.91166598 135.72628232 -89 128 C-89 118.43 -89 108.86 -89 99 C-85.535 100.8253125 -85.535 100.8253125 -82 102.6875 C-67.73379163 109.97628407 -50.1112807 116.30349501 -34.0078125 112.24609375 C-29.60661936 110.58095391 -25.87149452 108.87027523 -23 105 C-21.1772736 99.5318208 -21.12254721 94.07397933 -23.375 88.75 C-31.21356188 80.53817327 -42.38108091 77.45827251 -52.8359375 73.87695312 C-66.8283967 68.92394058 -79.03610941 62.63778825 -86.73828125 49.66015625 C-90.92209514 40.83917402 -91.42516154 30.51136682 -89.34765625 21.01953125 C-85.59590984 10.63379547 -76.75110376 2.20190366 -66.88671875 -2.4765625 C-44.05310442 -11.65293865 -22.53781281 -8.45167981 0 0 Z " fill="#3A34E9" transform="translate(669,435)"/>
<path d="M0 0 C7.99993667 6.81368928 13.05550445 15.40039182 15.125 25.75 C15.21303369 28.10315013 15.24264216 30.45868389 15.23852539 32.81347656 C15.23867142 33.51631775 15.23881744 34.21915894 15.2389679 34.94329834 C15.23827299 37.25910563 15.23050038 39.57483181 15.22265625 41.890625 C15.22079057 43.49916541 15.21936737 45.10770638 15.21836853 46.71624756 C15.21455516 50.94455542 15.20473495 55.17282879 15.19366455 59.40112305 C15.18342506 63.71793145 15.17886547 68.03474544 15.17382812 72.3515625 C15.16311162 80.8177259 15.14552437 89.28385468 15.125 97.75 C6.545 97.75 -2.035 97.75 -10.875 97.75 C-10.8843457 95.86361816 -10.89369141 93.97723633 -10.90332031 92.03369141 C-10.93899187 85.76706858 -10.99288046 79.5008041 -11.05890274 73.23443031 C-11.09823648 69.43898538 -11.13049328 65.64376755 -11.14599609 61.84814453 C-11.16125676 58.177935 -11.19586536 54.50835041 -11.24330902 50.83842087 C-11.25802677 49.44561605 -11.26603544 48.05272195 -11.26688385 46.65983963 C-11.2775121 37.9518318 -11.4501145 29.16532254 -17.21563721 22.10928345 C-22.2964028 17.41713374 -28.76543784 16.20667287 -35.47265625 16.3671875 C-43.89669239 17.70955423 -49.95080992 22.93618748 -54.97943115 29.49465942 C-57.125787 33.18068712 -57.36198023 35.17304055 -57.32910156 39.39794922 C-57.32879944 40.69884491 -57.32849731 41.9997406 -57.32818604 43.34005737 C-57.30776397 44.74494042 -57.28690006 46.14981711 -57.265625 47.5546875 C-57.25815695 49.00342017 -57.25246668 50.452163 -57.24847412 51.90090942 C-57.23326185 55.69873347 -57.19401943 59.49593757 -57.1496582 63.29351807 C-57.10860944 67.17476009 -57.09044272 71.05610309 -57.0703125 74.9375 C-57.02751953 82.54198091 -56.9572073 90.14582432 -56.875 97.75 C-65.455 97.75 -74.035 97.75 -82.875 97.75 C-82.875 64.09 -82.875 30.43 -82.875 -4.25 C-76.26978719 -4.85047389 -70.22912975 -5.37251495 -63.6875 -5.3125 C-62.39457031 -5.30347656 -61.10164062 -5.29445313 -59.76953125 -5.28515625 C-58.81433594 -5.27355469 -57.85914063 -5.26195312 -56.875 -5.25 C-56.545 -1.95 -56.215 1.35 -55.875 4.75 C-55.23433594 4.20730469 -54.59367188 3.66460937 -53.93359375 3.10546875 C-38.65344975 -9.53310043 -16.70525551 -12.14674985 0 0 Z " fill="#3A34E9" transform="translate(776.875,472.25)"/>
<path d="M0 0 C8.58 0 17.16 0 26 0 C26 46.53 26 93.06 26 141 C17.42 141 8.84 141 0 141 C0 94.47 0 47.94 0 0 Z " fill="#3A35EA" transform="translate(1244,429)"/>
<path d="M0 0 C3.11065615 1.15758454 5.72936718 2.33247731 8.35546875 4.36328125 C8.96890137 4.8315332 9.58233398 5.29978516 10.21435547 5.78222656 C10.86549316 6.2872168 11.51663086 6.79220703 12.1875 7.3125 C13.60949873 8.39867983 15.03272361 9.48325587 16.45703125 10.56640625 C17.19775879 11.1298877 17.93848633 11.69336914 18.70166016 12.27392578 C22.5475549 15.16222786 26.46440946 17.9503354 30.375 20.75 C32.60156498 22.35940902 34.82573149 23.9720462 37.04833984 25.58691406 C38.729838 26.80439109 40.42069411 28.00892455 42.11328125 29.2109375 C50.10488355 35.15310006 56.17551501 43.01629925 58 53 C58.26738692 57.24014382 58.232882 61.46774888 58.1953125 65.71484375 C58.1924826 66.92572159 58.18965271 68.13659943 58.18673706 69.38417053 C58.1755803 73.23538268 58.15048355 77.08635864 58.125 80.9375 C58.1149644 83.55533517 58.10583956 86.17317401 58.09765625 88.79101562 C58.07565567 95.19409042 58.04222276 101.59702833 58 108 C57.45467621 107.59080322 56.90935242 107.18160645 56.34750366 106.76000977 C55.6300296 106.22174561 54.91255554 105.68348145 54.17333984 105.12890625 C53.46301605 104.59595947 52.75269226 104.0630127 52.02084351 103.51391602 C50.42518131 102.31852481 48.82642832 101.12725937 47.2265625 99.9375 C4.02046004 67.75998225 4.02046004 67.75998225 1.4921875 51.79296875 C1.00119192 48.00918536 0.65639677 44.24459571 0.4375 40.4375 C0.3950415 39.70096191 0.35258301 38.96442383 0.30883789 38.20556641 C-0.32043018 25.4910594 -0.08181762 12.72578601 0 0 Z " fill="#3C36E9" transform="translate(304,370)"/>
<path d="M0 0 C0.10217798 7.04332967 0.17178927 14.08646525 0.21972656 21.13037109 C0.23972977 23.52204532 0.26694124 25.91367133 0.30175781 28.30517578 C0.35077466 31.76086386 0.37308262 35.21590033 0.390625 38.671875 C0.41127014 39.72550232 0.43191528 40.77912964 0.45318604 41.86468506 C0.45704846 54.90654497 -3.75034221 64.67403002 -12.85546875 73.875 C-18.31486314 78.94368338 -24.32010457 83.36062441 -30.25805664 87.84594727 C-36.23640042 92.37149909 -42.06188302 97.06282104 -47.82250977 101.86206055 C-48.44440186 102.37551025 -49.06629395 102.88895996 -49.70703125 103.41796875 C-50.51877808 104.09508911 -50.51877808 104.09508911 -51.34692383 104.78588867 C-53.14509925 106.10656898 -54.9977409 107.02444214 -57 108 C-57.05086743 100.59850003 -57.08580388 93.19704546 -57.10986328 85.79541016 C-57.11989737 83.2794425 -57.13352768 80.76348643 -57.15087891 78.24755859 C-57.17524097 74.62334322 -57.18650931 70.99928256 -57.1953125 67.375 C-57.20563507 66.25697998 -57.21595764 65.13895996 -57.22659302 63.98706055 C-57.22826209 52.26970822 -54.97819142 42.92864656 -46.8125 34.25 C-41.23518985 28.90100079 -35.04032961 24.60048309 -28.6796875 20.23828125 C-23.59838774 16.75071111 -18.64009 13.10467406 -13.6875 9.4375 C-12.88127197 8.84163086 -12.07504395 8.24576172 -11.24438477 7.63183594 C-7.0093546 4.50167913 -7.0093546 4.50167913 -2.81567383 1.31665039 C-1 0 -1 0 0 0 Z " fill="#3A35E9" transform="translate(445,370)"/>
<path d="M0 0 C0.10191247 7.50720548 0.17168009 15.01423073 0.21972656 22.52197266 C0.23976872 25.07282173 0.26700993 27.62362527 0.30175781 30.17431641 C0.3506003 33.8533048 0.37304381 37.53168259 0.390625 41.2109375 C0.41127014 42.34050873 0.43191528 43.47007996 0.45318604 44.63388062 C0.45667134 57.09696973 -4.01169515 65.89713277 -12.66796875 74.6953125 C-19.00437432 80.48619971 -26.13996256 85.43507679 -33.02978516 90.53955078 C-35.83890982 92.6218536 -38.63881922 94.71617701 -41.4375 96.8125 C-42.38238281 97.51890625 -43.32726562 98.2253125 -44.30078125 98.953125 C-47.66676178 101.50561964 -50.97160927 104.13091518 -54.2578125 106.78515625 C-56 108 -56 108 -58 108 C-58.42131596 55.1669783 -58.42131596 55.1669783 -53 45 C-52.53464844 44.1234375 -52.06929688 43.246875 -51.58984375 42.34375 C-46.04935413 33.55973912 -37.6816495 27.92425954 -29.45507812 21.83349609 C-25.37722852 18.78808534 -21.38093895 15.63900708 -17.375 12.5 C-13.11504297 9.17342574 -8.84344946 5.86271084 -4.5390625 2.59375 C-3.55607178 1.84641602 -3.55607178 1.84641602 -2.55322266 1.08398438 C-1 0 -1 0 0 0 Z " fill="#3B36E9" transform="translate(362,529)"/>
<path d="M0 0 C3.41412324 2.2346 6.72162786 4.47793905 9.84765625 7.1015625 C10.52876465 7.66915283 11.20987305 8.23674316 11.91162109 8.8215332 C12.62141113 9.41667725 13.33120117 10.01182129 14.0625 10.625 C19.26385692 14.95047493 24.49091496 19.21632424 29.875 23.3125 C30.90625 24.10398437 31.9375 24.89546875 33 25.7109375 C34.98999663 27.22934639 36.98998489 28.73475441 39 30.2265625 C47.44834156 36.72352082 54.16943082 44.81944039 56.54882812 55.45263672 C57.17956233 60.4118185 57.12241928 65.31086536 57.09765625 70.3046875 C57.0962413 71.38380402 57.09482635 72.46292053 57.09336853 73.57473755 C57.08778844 77.00818702 57.07523955 80.44157036 57.0625 83.875 C57.05748243 86.20833239 57.05291997 88.5416658 57.04882812 90.875 C57.03782553 96.58335575 57.02110721 102.29167315 57 108 C56.47407257 107.60471603 55.94814514 107.20943207 55.40628052 106.8021698 C51.80226835 104.09581478 48.19594571 101.39444986 44.5546875 98.73828125 C34.89082808 91.66783911 25.3243025 84.51363874 16 77 C15.19949219 76.37867188 14.39898437 75.75734375 13.57421875 75.1171875 C6.56997028 69.44519721 1.66984497 61.94071771 0 53 C-0.26651999 48.90552178 -0.23300851 44.82429515 -0.1953125 40.72265625 C-0.1924826 39.5561705 -0.18965271 38.38968475 -0.18673706 37.18785095 C-0.17558388 33.47929424 -0.15048786 29.77098315 -0.125 26.0625 C-0.11496393 23.54101912 -0.10583918 21.01953445 -0.09765625 18.49804688 C-0.07566044 12.3319481 -0.04223118 6.16599161 0 0 Z " fill="#3A35E9" transform="translate(388,529)"/>
<path d="M0 0 C6.79517343 -0.07650946 13.59023441 -0.1287916 20.38574219 -0.16479492 C22.69405265 -0.17981541 25.00233488 -0.20023779 27.31054688 -0.22631836 C30.64199825 -0.26299885 33.97306995 -0.27979431 37.3046875 -0.29296875 C38.32488983 -0.30845261 39.34509216 -0.32393646 40.39620972 -0.33988953 C53.19531207 -0.34284811 63.99465973 3.85928574 73.1875 12.875 C76.22383945 16.08069703 79.14031514 19.38736863 82.01953125 22.734375 C84.46606181 25.53316735 86.98094528 28.26672981 89.5 31 C101.55104712 44.10209424 101.55104712 44.10209424 103 47 C95.49746279 47.09323927 87.99498669 47.16403563 80.49199963 47.20724869 C77.00690738 47.2280033 73.52221545 47.25609382 70.03735352 47.30175781 C66.01835589 47.35408311 61.99976975 47.37304512 57.98046875 47.390625 C56.12980049 47.42159271 56.12980049 47.42159271 54.241745 47.45318604 C44.45978791 47.45568975 35.49279441 45.73708631 27.75 39.375 C27.00234375 38.78460938 26.2546875 38.19421875 25.484375 37.5859375 C21.79791528 33.74877345 18.96171566 29.40858914 16 25 C15.08951904 23.65736084 15.08951904 23.65736084 14.16064453 22.28759766 C12.32624229 19.57330665 10.5051654 16.85052191 8.6875 14.125 C8.06810547 13.20203125 7.44871094 12.2790625 6.81054688 11.328125 C6.21693359 10.43867188 5.62332031 9.54921875 5.01171875 8.6328125 C4.48022217 7.83762207 3.94872559 7.04243164 3.40112305 6.22314453 C2.12185887 4.19335195 1.05487939 2.15160325 0 0 Z " fill="#3C36EA" transform="translate(237,447)"/>
<path d="M0 0 C1.29966202 0.00424484 2.59932404 0.00848969 3.93836975 0.01286316 C7.37274884 0.02424926 10.80673976 0.05366125 14.2409668 0.0869751 C17.75369009 0.11781167 21.26647688 0.13139734 24.77929688 0.14648438 C31.6564082 0.17853812 38.53326352 0.2296576 45.41015625 0.29296875 C43.52495026 4.3716396 40.7925272 7.31583653 37.72265625 10.54296875 C36.62552833 11.71281649 35.52916948 12.88338599 34.43359375 14.0546875 C33.90733398 14.61591309 33.38107422 15.17713867 32.83886719 15.75537109 C31.13532604 17.58874467 29.48287362 19.4610096 27.84765625 21.35546875 C26.70212422 22.66823173 25.55625371 23.98069938 24.41015625 25.29296875 C23.56839844 26.26363281 22.72664063 27.23429688 21.859375 28.234375 C11.9577536 39.49119287 2.06001966 46.31700294 -13.27325439 47.5 C-20.3580536 47.78177057 -27.4400545 47.65932477 -34.52734375 47.54296875 C-36.67511342 47.52285824 -38.82290142 47.50461558 -40.97070312 47.48828125 C-46.1775449 47.44468081 -51.38348613 47.37590809 -56.58984375 47.29296875 C-36.12960514 11.63454635 -36.12960514 11.63454635 -20.58984375 3.29296875 C-19.66695557 2.77814941 -18.74406738 2.26333008 -17.79321289 1.73291016 C-12.13495738 -0.65284615 -6.02925715 -0.07442153 0 0 Z " fill="#3C36E9" transform="translate(293.58984375,512.70703125)"/>
<path d="M0 0 C7.38943971 -0.09317749 14.77875026 -0.16400459 22.16866112 -0.20724869 C25.60109768 -0.22801657 29.03312875 -0.25613212 32.46533203 -0.30175781 C36.42214908 -0.35402097 40.37880889 -0.37303456 44.3359375 -0.390625 C45.55300385 -0.41127014 46.77007019 -0.43191528 48.02401733 -0.45318604 C59.0163506 -0.4560479 67.8805819 2.40802441 76 10 C81.27593914 15.64402792 85.42527431 21.94398486 89.60595703 28.41674805 C90.75647992 30.19752963 91.91470634 31.97310847 93.07421875 33.74804688 C98.90070154 42.70529329 98.90070154 42.70529329 101 47 C94.81106129 47.07477342 88.62239198 47.12889419 82.43310547 47.16479492 C80.33247286 47.17977873 78.23187099 47.20017281 76.13134766 47.22631836 C58.69710986 47.43771782 42.21893429 47.18174888 28.875 34.3125 C25.18156666 30.36434711 21.81305485 26.15450519 18.43359375 21.9375 C14.98207429 17.77129995 11.29259899 13.85356969 7.578125 9.921875 C5.66385809 7.7523725 3.99627057 5.66819671 2.33886719 3.31738281 C1.89806824 2.69406067 1.45726929 2.07073853 1.00311279 1.42852783 C0.67208557 0.95711365 0.34105835 0.48569946 0 0 Z " fill="#3B35E9" transform="translate(412,513)"/>
<path d="M0 0 C0.96069397 0.00007553 1.92138794 0.00015106 2.91119385 0.00022888 C3.94049011 0.00539017 4.96978638 0.01055145 6.03027344 0.01586914 C7.0900238 0.01728409 8.14977417 0.01869904 9.24163818 0.02015686 C12.62433705 0.02575158 16.00696959 0.03830314 19.38964844 0.05102539 C21.68391831 0.05604107 23.97818923 0.06060386 26.27246094 0.06469727 C31.89487938 0.07571928 37.51725917 0.09245218 43.13964844 0.11352539 C40.89542172 6.26830501 37.1943321 11.38020494 33.57714844 16.80102539 C32.89845703 17.83936523 32.21976562 18.87770508 31.52050781 19.94750977 C23.83944625 31.4944402 15.39355108 42.99577662 1.34082031 46.74291992 C-3.73607885 47.59770396 -8.91642959 47.35551716 -14.04785156 47.30102539 C-15.30621826 47.29458008 -16.56458496 47.28813477 -17.86108398 47.28149414 C-31.20296301 47.17537592 -44.53117431 46.6933901 -57.86035156 46.11352539 C-54.11481099 41.69470265 -50.30510287 37.35528847 -46.36035156 33.11352539 C-45.85407227 32.56881592 -45.34779297 32.02410645 -44.82617188 31.46289062 C-43.74082975 30.29524064 -42.65521066 29.12784806 -41.56933594 27.96069336 C-39.78580445 26.03295061 -38.01762505 24.0919003 -36.25097656 22.14868164 C-35.03754999 20.82435742 -33.82401058 19.50013659 -32.61035156 18.17602539 C-32.05669922 17.56178711 -31.50304687 16.94754883 -30.93261719 16.31469727 C-25.82569461 10.77262863 -20.14791961 5.71622237 -13.11035156 2.80102539 C-12.39363281 2.49551758 -11.67691406 2.19000977 -10.93847656 1.87524414 C-7.2128447 0.509646 -3.97303054 -0.01045534 0 0 Z " fill="#3A35EA" transform="translate(469.8603515625,446.886474609375)"/>
<path d="M0 0 C7.93815569 4.89243971 12.26216863 11.55019061 14.828125 20.375 C16.80690218 29.81083561 14.71431796 40.00646873 9.51953125 48.07421875 C3.46830155 55.41782684 -2.79191714 58.23803163 -12.125 59.38671875 C-19.9120746 59.76924171 -26.84058553 57.83803644 -33.125 53.13671875 C-40.82215068 45.07303709 -43.17744492 36.8716071 -43.11132812 25.85961914 C-42.89931353 17.37812144 -40.85411633 11.33510025 -35.0625 5.01171875 C-25.27712627 -3.85795946 -12.12664903 -5.68436673 0 0 Z " fill="#FDFDFE" transform="translate(1018.75,490.61328125)"/>
<path d="M0 0 C8.16415249 5.82464646 12.96798143 12.17546986 15 22 C15.86111632 32.36651566 14.20107291 41.16118661 7.5390625 49.31640625 C1.133051 56.3239975 -5.44337249 58.58220906 -14.7578125 59.046875 C-23.4737884 58.92086089 -28.6057764 55.35230592 -34.828125 49.41015625 C-41.46862945 42.04110724 -42.38234921 34.00114024 -42.2734375 24.3515625 C-41.55837228 15.58690595 -37.43304141 8.84821946 -31 3 C-21.79974547 -3.91308845 -10.46528068 -5.59688186 0 0 Z " fill="#FDFCFE" transform="translate(882,491)"/>
<path d="M0 0 C0.66 0 1.32 0 2 0 C2.61197917 1.59114583 3.22395833 3.18229167 3.8359375 4.7734375 C4.23635254 5.81435547 4.63676758 6.85527344 5.04931641 7.92773438 C5.94005132 10.24397322 6.83034409 12.56038214 7.72021484 14.87695312 C10.10008533 21.07047196 12.48744742 27.26080856 14.890625 33.4453125 C15.34904785 34.62818848 15.8074707 35.81106445 16.27978516 37.02978516 C17.1674078 39.3195616 18.05765254 41.60832355 18.95068359 43.89599609 C19.35109863 44.93062988 19.75151367 45.96526367 20.1640625 47.03125 C20.51936035 47.94455078 20.8746582 48.85785156 21.24072266 49.79882812 C22 52 22 52 22 54 C8.47 54 -5.06 54 -19 54 C-18.32812116 50.64060578 -17.71198807 47.93222189 -16.55712891 44.7956543 C-16.26657623 44.00100266 -15.97602356 43.20635101 -15.67666626 42.38761902 C-15.36313202 41.54169693 -15.04959778 40.69577484 -14.7265625 39.82421875 C-14.23994644 38.49823418 -14.23994644 38.49823418 -13.74349976 37.14546204 C-12.70742975 34.32486615 -11.66626295 31.50618242 -10.625 28.6875 C-9.93196133 26.80285582 -9.23924955 24.91809139 -8.546875 23.03320312 C-5.7209472 15.3467286 -2.88185795 7.66569814 0 0 Z " fill="#FCFCFE" transform="translate(1157,463)"/>
<path d="M0 0 C6.92338952 -0.05063836 13.84673141 -0.08570749 20.77026367 -0.10986328 C23.12640162 -0.11993155 25.48252704 -0.13358706 27.83862305 -0.15087891 C31.22187386 -0.17509076 34.60495972 -0.18647478 37.98828125 -0.1953125 C39.57277824 -0.21079636 39.57277824 -0.21079636 41.18928528 -0.22659302 C42.17007553 -0.22674408 43.15086578 -0.22689514 44.16137695 -0.22705078 C45.45710381 -0.23371262 45.45710381 -0.23371262 46.77900696 -0.24050903 C49 0 49 0 52 2 C36.16 2.33 20.32 2.66 4 3 C3.67 3.66 3.34 4.32 3 5 C2.01 3.35 1.02 1.7 0 0 Z " fill="#1F1AEA" transform="translate(237,447)"/>
<path d="M0 0 C0.33 0 0.66 0 1 0 C1 16.5 1 33 1 50 C-1.64 48.02 -4.28 46.04 -7 44 C-4 44 -4 44 -1 46 C-1.00523682 45.13947021 -1.01047363 44.27894043 -1.01586914 43.39233398 C-1.0331714 40.12133074 -1.04557407 36.85037786 -1.05493164 33.5793457 C-1.05988235 32.17829611 -1.06664464 30.77725144 -1.07543945 29.3762207 C-1.13555718 19.5345944 -0.78606217 9.81292721 0 0 Z " fill="#1E1AE9" transform="translate(361,428)"/>
<path d="M0 0 C4.39309313 1.58003686 6.82418312 3.55197024 10 7 C7.69 6.67 5.38 6.34 3 6 C2.67 19.2 2.34 32.4 2 46 C1.67 46 1.34 46 1 46 C-0.36924631 30.69378229 -0.09744154 15.35079067 0 0 Z " fill="#2B28EB" transform="translate(304,370)"/>
<path d="M0 0 C0.33 0 0.66 0 1 0 C1.33 14.19 1.66 28.38 2 43 C2.66 43.33 3.32 43.66 4 44 C2.625 45.5 2.625 45.5 1 47 C0.34 47 -0.32 47 -1 47 C-1.12135629 31.29649572 -0.93201642 15.67784758 0 0 Z " fill="#2E2CED" transform="translate(305,590)"/>
<path d="M0 0 C18.48 0 36.96 0 56 0 C54.11656068 3.76687864 53.30867531 4.79421646 50 7 C51 5 52 3 53 1 C35.51 1 18.02 1 0 1 C0 0.67 0 0.34 0 0 Z " fill="#0B08E8" transform="translate(283,513)"/>
<path d="M0 0 C0 0.66 0 1.32 0 2 C-1.17755859 2.07347656 -1.17755859 2.07347656 -2.37890625 2.1484375 C-8.21344083 2.56365591 -13.3850161 3.30491052 -19 5 C-21.99207868 5.434334 -24.98810274 5.74047144 -28 6 C-27.67 5.34 -27.34 4.68 -27 4 C-24.53405239 3.17801746 -22.14343187 2.49033761 -19.625 1.875 C-18.90634766 1.69614258 -18.18769531 1.51728516 -17.44726562 1.33300781 C-11.58360904 -0.04006075 -6.02058808 -0.4591974 0 0 Z " fill="#2A26EB" transform="translate(633,427)"/>
<path d="M0 0 C0.33 0.66 0.66 1.32 1 2 C-1.31 4.64 -3.62 7.28 -6 10 C-6.99 9.34 -7.98 8.68 -9 8 C-6.03 5.36 -3.06 2.72 0 0 Z " fill="#2A26E9" transform="translate(836,473)"/>
<path d="M0 0 C2.31 0 4.62 0 7 0 C7.33 0.99 7.66 1.98 8 3 C1.4 3 -5.2 3 -12 3 C-12 2.67 -12 2.34 -12 2 C-8.04 2 -4.08 2 0 2 C0 1.34 0 0.68 0 0 Z " fill="#4742EA" transform="translate(633,427)"/>
<path d="M0 0 C0.33 0 0.66 0 1 0 C1.05394705 2.60444348 1.09364469 5.20776998 1.125 7.8125 C1.14175781 8.55048828 1.15851563 9.28847656 1.17578125 10.04882812 C1.21074628 13.91246426 1.19397555 15.70903668 -1 19 C-1.33 16.69 -1.66 14.38 -2 12 C-1.67 12 -1.34 12 -1 12 C-0.67 8.04 -0.34 4.08 0 0 Z " fill="#443FEA" transform="translate(1035,511)"/>
<path d="M0 0 C4.62 0 9.24 0 14 0 C14 0.33 14 0.66 14 1 C12.84371094 1.07347656 12.84371094 1.07347656 11.6640625 1.1484375 C10.66117187 1.22320313 9.65828125 1.29796875 8.625 1.375 C7.62726563 1.44460938 6.62953125 1.51421875 5.6015625 1.5859375 C2.84491121 1.76363964 2.84491121 1.76363964 1 4 C0.67 2.68 0.34 1.36 0 0 Z " fill="#312CEB" transform="translate(415,514)"/>
<path d="M0 0 C4.43458973 1.3937282 6.87378374 3.60582235 10 7 C6.66666667 5.66666667 3.33333333 4.33333333 0 3 C0 2.01 0 1.02 0 0 Z " fill="#221EE9" transform="translate(330,389)"/>
<path d="M0 0 C0.99 0.33 1.98 0.66 3 1 C3.125 3.875 3.125 3.875 3 7 C2.34 7.66 1.68 8.32 1 9 C0.67 6.03 0.34 3.06 0 0 Z " fill="#332EE8" transform="translate(788,493)"/>
</svg>
