<?xml version="1.0" encoding="UTF-8"?>
<svg version="1.1" xmlns="http://www.w3.org/2000/svg" width="856" height="291">
<path d="M0 0 C0.87454834 0.00523682 1.74909668 0.01047363 2.65014648 0.01586914 C3.59438477 0.0190918 4.53862305 0.02231445 5.51147461 0.02563477 C6.50469727 0.03401367 7.49791992 0.04239258 8.52124023 0.05102539 C9.51833008 0.05553711 10.51541992 0.06004883 11.54272461 0.06469727 C14.01478872 0.07652532 16.48673541 0.0930069 18.95874023 0.11352539 C28.0254332 21.96135846 36.56432611 44.00011786 44.95874023 66.11352539 C45.27852844 66.95477966 45.59831665 67.79603394 45.92779541 68.66278076 C47.80364289 73.59930234 49.67093898 78.53891217 51.5256958 83.48339844 C52.10201385 85.01771442 52.68039521 86.55125711 53.26092529 88.08398438 C54.06122361 90.19953734 54.85295761 92.31809595 55.64233398 94.43774414 C56.0914917 95.63488037 56.54064941 96.8320166 57.00341797 98.06542969 C57.95874023 101.11352539 57.95874023 101.11352539 57.95874023 105.11352539 C51.02874023 105.11352539 44.09874023 105.11352539 36.95874023 105.11352539 C33.89741357 97.80035613 30.90378756 90.4761437 27.95874023 83.11352539 C14.75874023 83.11352539 1.55874023 83.11352539 -12.04125977 83.11352539 C-15.09128284 90.43358076 -18.11566646 97.74536446 -21.04125977 105.11352539 C-27.97125977 105.11352539 -34.90125977 105.11352539 -42.04125977 105.11352539 C-42.04125977 102.80352539 -42.04125977 100.49352539 -42.04125977 98.11352539 C-41.38125977 98.11352539 -40.72125977 98.11352539 -40.04125977 98.11352539 C-39.86421509 97.50109482 -39.68717041 96.88866425 -39.50476074 96.25767517 C-37.75721956 90.31027301 -35.80070427 84.48686997 -33.63500977 78.67993164 C-33.31378647 77.81229691 -32.99256317 76.94466217 -32.66160583 76.05073547 C-31.62550488 73.25765325 -30.58394018 70.46665757 -29.54125977 67.67602539 C-29.18532745 66.72076965 -28.82939514 65.76551392 -28.462677 64.78131104 C-22.96269163 50.03285903 -17.26220802 35.39472525 -11.19018555 20.87133789 C-10.06303661 18.16579722 -8.95320503 15.45384778 -7.84985352 12.73852539 C-7.51928955 11.92657715 -7.18872559 11.11462891 -6.84814453 10.27807617 C-6.24986126 8.80815202 -5.65260384 7.33780968 -5.05664062 5.86694336 C-2.71355749 0.15091547 -2.71355749 0.15091547 0 0 Z M7.95874023 28.11352539 C4.94386727 35.19917154 2.04032399 42.32787867 -0.79125977 49.48852539 C-1.09684814 50.24891113 -1.40243652 51.00929688 -1.71728516 51.79272461 C-2.14835571 52.89124756 -2.14835571 52.89124756 -2.58813477 54.01196289 C-2.84433594 54.6582666 -3.10053711 55.30457031 -3.36450195 55.97045898 C-4.199028 58.6131248 -4.58566048 61.37992965 -5.04125977 64.11352539 C3.86874023 64.11352539 12.77874023 64.11352539 21.95874023 64.11352539 C21.08821151 59.76088176 19.85137527 55.93853296 18.23608398 51.84399414 C17.97114639 51.16299149 17.7062088 50.48198883 17.4332428 49.78034973 C16.59140374 47.61905808 15.74391516 45.46003394 14.89624023 43.30102539 C14.32229731 41.83046866 13.74872556 40.35976699 13.17553711 38.88891602 C11.77422976 35.29542711 10.36785357 31.70396012 8.95874023 28.11352539 C8.62874023 28.11352539 8.29874023 28.11352539 7.95874023 28.11352539 Z " fill="#3D37E9" transform="translate(706.041259765625,90.886474609375)"/>
<path d="M0 0 C8.29216083 7.73054038 13.41604236 16.15631138 14.015625 27.640625 C14.2848851 42.65058917 14.2848851 42.65058917 10.8125 49.75 C10.48378906 50.49378906 10.15507813 51.23757812 9.81640625 52.00390625 C5.51332529 60.80363237 -2.28143026 67.69182418 -11.5390625 70.91796875 C-20.40182948 72.9391351 -30.98767484 73.16644995 -39.1875 68.75 C-41.4975 67.1 -43.8075 65.45 -46.1875 63.75 C-46.5175 75.3 -46.8475 86.85 -47.1875 98.75 C-53.7875 98.75 -60.3875 98.75 -67.1875 98.75 C-67.1875 64.1 -67.1875 29.45 -67.1875 -6.25 C-60.31452349 -6.87481605 -54.0092163 -7.36183141 -47.1875 -7.25 C-46.8575 -4.61 -46.5275 -1.97 -46.1875 0.75 C-45.66800781 0.34007813 -45.14851562 -0.06984375 -44.61328125 -0.4921875 C-31.15095946 -10.8937596 -13.35468726 -11.05737811 0 0 Z M-44.62109375 18.40234375 C-48.58300344 24.66737049 -48.08609639 32.66193364 -47.1875 39.75 C-44.97584909 45.79578343 -40.70026385 50.10913055 -34.87109375 52.83203125 C-29.29648776 54.73891976 -23.33179415 54.50447387 -17.8125 52.5625 C-12.12617256 48.63622629 -8.1231278 44.35081439 -6.71484375 37.42578125 C-5.74565704 30.15131088 -6.36239698 24.23741261 -10.375 18 C-14.11333629 13.30559495 -17.51703472 11.11955897 -23.43359375 10.30078125 C-32.59230018 9.857141 -38.54823034 11.40283088 -44.62109375 18.40234375 Z " fill="#3D37EA" transform="translate(629.1875,125.25)"/>
<path d="M0 0 C0.96808594 0.3196875 1.93617188 0.639375 2.93359375 0.96875 C5.48664723 3.47836779 5.35241811 4.38712672 5.48828125 7.88671875 C5.45504764 9.82091459 5.39542126 11.75479669 5.3125 13.6875 C5.28994141 14.67556641 5.26738281 15.66363281 5.24414062 16.68164062 C5.18517988 19.12261559 5.10295048 21.56054868 5 24 C4.319375 23.72285156 3.63875 23.44570312 2.9375 23.16015625 C-0.35525731 21.85969226 -3.67005462 20.63958157 -7 19.4375 C-8.794375 18.78587891 -8.794375 18.78587891 -10.625 18.12109375 C-18.07418916 15.64665244 -25.85020857 14.7097314 -33.4375 17.1875 C-37.26056668 19.13256901 -38.62477511 19.96600698 -40 24 C-40.076793 28.30040822 -39.70006584 30.25406778 -36.734375 33.4140625 C-31.02790261 37.9193067 -23.51312789 39.71809602 -16.74023438 42.07421875 C-6.2296439 45.89514893 2.22420252 51.1713548 8 61 C11.12172124 68.66240668 11.03313426 77.12396008 8.09375 84.83984375 C4.23961174 92.4517668 -2.31646691 97.53855181 -10 101 C-16.12409111 102.9028194 -21.7326404 103.35232049 -28.125 103.3125 C-29.04571289 103.30831055 -29.96642578 103.30412109 -30.91503906 103.29980469 C-42.4349934 103.11068913 -51.35617531 100.73058875 -62 96 C-62.33 88.74 -62.66 81.48 -63 74 C-58.90317685 74.81936463 -56.80961782 75.46748119 -53.3125 77.375 C-43.22373236 82.52354514 -31.12595393 86.09478519 -19.875 82.875 C-17.16650334 81.76471553 -15.9568486 80.95557944 -13.875 78.8125 C-12.37601523 73.99433468 -13.41394258 69.75817227 -15 65 C-17.13326836 63.96026816 -17.13326836 63.96026816 -20 63 C-21.27394379 62.42349122 -22.54437784 61.83920398 -23.8125 61.25 C-26.76551541 59.91176058 -29.73073624 58.72192646 -32.7890625 57.65234375 C-45.61362205 53.15298059 -56.03909329 47.92181341 -62.375 35.25 C-64.09095942 26.32701101 -63.81080318 17.89856994 -58.81640625 10.16796875 C-45.02135562 -7.76950501 -19.3262261 -6.657306 0 0 Z " fill="#3D37EA" transform="translate(353,94)"/>
<path d="M0 0 C1.76310382 1.34892641 3.29469173 2.76930432 4.8125 4.38671875 C5.1425 2.40671875 5.4725 0.42671875 5.8125 -1.61328125 C12.4125 -1.61328125 19.0125 -1.61328125 25.8125 -1.61328125 C25.8125 23.46671875 25.8125 48.54671875 25.8125 74.38671875 C19.2125 74.38671875 12.6125 74.38671875 5.8125 74.38671875 C5.3175 70.92171875 5.3175 70.92171875 4.8125 67.38671875 C4.23242188 67.79664063 3.65234375 68.2065625 3.0546875 68.62890625 C2.27351562 69.16773438 1.49234375 69.7065625 0.6875 70.26171875 C-0.07820312 70.79539062 -0.84390625 71.3290625 -1.6328125 71.87890625 C-9.04830628 76.25563499 -16.80279922 76.20166462 -25.1875 75.38671875 C-35.92281537 72.51162854 -43.03628794 66.97150209 -48.90234375 57.6953125 C-54.57850039 47.49893386 -55.94953151 35.58268248 -53.50390625 24.20703125 C-49.68324763 13.01456244 -42.72995504 3.82524483 -32.375 -2.05078125 C-22.60740532 -5.96462581 -8.98891737 -5.34519551 0 0 Z M-28.9375 21.13671875 C-33.54564791 26.70108278 -34.81699864 32.21043429 -34.1875 39.38671875 C-32.74526499 45.88988752 -29.19482291 51.03341353 -24.1875 55.38671875 C-18.12612361 58.45212841 -11.26593532 58.3741414 -4.875 56.32421875 C0.19652768 52.66800112 3.9046721 48.40033296 5.8125 42.38671875 C6.59289377 34.38008136 6.67737828 27.16228674 1.453125 20.70703125 C-2.16273237 16.81159727 -5.46079324 14.69233217 -10.87109375 14.0859375 C-18.85614073 14.05195858 -23.34488364 15.22321457 -28.9375 21.13671875 Z " fill="#3D37E9" transform="translate(516.1875,121.61328125)"/>
<path d="M0 0 C7.17029631 6.75115581 9.57250137 14.45869635 10.17022705 24.14654541 C10.22551141 27.17915057 10.22144996 30.20533222 10.19140625 33.23828125 C10.18857635 34.33393402 10.18574646 35.42958679 10.18283081 36.55844116 C10.17172888 40.02214972 10.14664314 43.48558972 10.12109375 46.94921875 C10.11105104 49.31249624 10.10192746 51.67577782 10.09375 54.0390625 C10.07182232 59.80088309 10.03736222 65.56250555 9.99609375 71.32421875 C3.06609375 71.32421875 -3.86390625 71.32421875 -11.00390625 71.32421875 C-11.05289063 68.00101562 -11.101875 64.6778125 -11.15234375 61.25390625 C-11.20638998 58.02697336 -11.26368323 54.80011327 -11.32128906 51.57324219 C-11.35951613 49.33469084 -11.39437986 47.09607938 -11.42578125 44.85742188 C-11.47156773 41.63519849 -11.52954039 38.41338668 -11.58984375 35.19140625 C-11.60139496 34.19430634 -11.61294617 33.19720642 -11.62484741 32.16989136 C-11.76241498 25.65819696 -12.00487634 20.5731274 -16.50390625 15.51171875 C-20.54165478 11.97868879 -23.25318924 12.03469592 -28.47265625 12.1171875 C-33.51126838 12.52929621 -36.68552046 14.74875941 -40.14135742 18.24853516 C-44.09501064 22.97697141 -43.75482728 27.54162792 -43.5546875 33.47265625 C-43.54382614 34.5257901 -43.53296478 35.57892395 -43.52177429 36.66397095 C-43.4817391 40.0101931 -43.4003897 43.35383793 -43.31640625 46.69921875 C-43.25907547 50.06566314 -43.21011346 53.43211332 -43.16459656 56.79873657 C-43.13335903 58.89001186 -43.09353915 60.98117921 -43.04450989 63.07211304 C-43.02506821 64.01043976 -43.00562653 64.94876648 -42.9855957 65.91552734 C-42.96527786 66.74490814 -42.94496002 67.57428894 -42.92402649 68.42880249 C-43.00390625 70.32421875 -43.00390625 70.32421875 -44.00390625 71.32421875 C-50.60390625 71.32421875 -57.20390625 71.32421875 -64.00390625 71.32421875 C-64.00390625 46.24421875 -64.00390625 21.16421875 -64.00390625 -4.67578125 C-59.43604159 -5.58935418 -55.30475532 -5.79187691 -50.69140625 -5.73828125 C-49.95083984 -5.73376953 -49.21027344 -5.72925781 -48.44726562 -5.72460938 C-46.63277726 -5.712903 -44.81833091 -5.69497023 -43.00390625 -5.67578125 C-42.67390625 -3.69578125 -42.34390625 -1.71578125 -42.00390625 0.32421875 C-41.30265625 -0.27390625 -40.60140625 -0.87203125 -39.87890625 -1.48828125 C-27.75819948 -10.71055814 -11.5144441 -9.62903805 0 0 Z " fill="#3D37EA" transform="translate(438.00390625,124.67578125)"/>
<path d="M0 0 C1.27423828 -0.00193359 1.27423828 -0.00193359 2.57421875 -0.00390625 C3.91419922 0.00189453 3.91419922 0.00189453 5.28125 0.0078125 C6.17457031 0.00394531 7.06789063 0.00007813 7.98828125 -0.00390625 C8.83777344 -0.00261719 9.68726563 -0.00132813 10.5625 0 C11.34689453 0.00112793 12.13128906 0.00225586 12.93945312 0.00341797 C14.78125 0.1328125 14.78125 0.1328125 15.78125 1.1328125 C15.87867068 2.47120723 15.90756559 3.81468075 15.90823364 5.15661621 C15.91105347 6.02320358 15.91387329 6.88979095 15.91677856 7.78263855 C15.91475433 8.7405983 15.9127301 9.69855804 15.91064453 10.68554688 C15.91239685 11.68870438 15.91414917 12.69186188 15.91595459 13.72541809 C15.92037516 17.05915022 15.91743439 20.39282979 15.9140625 23.7265625 C15.91473548 26.03202322 15.91570545 28.33748386 15.91696167 30.64294434 C15.91843892 35.48185907 15.91628321 40.32075537 15.91162109 45.15966797 C15.9059238 51.37775895 15.90920266 57.59580678 15.91519356 63.81389618 C15.91879843 68.57664315 15.91766092 73.3393798 15.91506577 78.10212708 C15.91439629 80.39557399 15.91522562 82.68902182 15.91754532 84.98246765 C15.92007064 88.18169656 15.91623295 91.38085453 15.91064453 94.58007812 C15.91266876 95.53803787 15.91469299 96.49599762 15.91677856 97.48298645 C15.91254883 98.78286751 15.91254883 98.78286751 15.90823364 100.10900879 C15.90785662 100.8663456 15.90747959 101.6236824 15.90709114 102.40396881 C15.78125 104.1328125 15.78125 104.1328125 14.78125 105.1328125 C13.37776265 105.23141381 11.96944523 105.26360187 10.5625 105.265625 C9.28826172 105.26755859 9.28826172 105.26755859 7.98828125 105.26953125 C7.09496094 105.26566406 6.20164062 105.26179688 5.28125 105.2578125 C4.38792969 105.26167969 3.49460937 105.26554687 2.57421875 105.26953125 C1.72472656 105.26824219 0.87523437 105.26695312 0 105.265625 C-0.78439453 105.26449707 -1.56878906 105.26336914 -2.37695312 105.26220703 C-4.21875 105.1328125 -4.21875 105.1328125 -5.21875 104.1328125 C-5.31617068 102.79441777 -5.34506559 101.45094425 -5.34573364 100.10900879 C-5.34855347 99.24242142 -5.35137329 98.37583405 -5.35427856 97.48298645 C-5.35225433 96.5250267 -5.3502301 95.56706696 -5.34814453 94.58007812 C-5.34989685 93.57692062 -5.35164917 92.57376312 -5.35345459 91.54020691 C-5.35787516 88.20647478 -5.35493439 84.87279521 -5.3515625 81.5390625 C-5.35223548 79.23360178 -5.35320545 76.92814114 -5.35446167 74.62268066 C-5.35593892 69.78376593 -5.35378321 64.94486963 -5.34912109 60.10595703 C-5.3434238 53.88786605 -5.34670266 47.66981822 -5.35269356 41.45172882 C-5.35629843 36.68898185 -5.35516092 31.9262452 -5.35256577 27.16349792 C-5.35189629 24.87005101 -5.35272562 22.57660318 -5.35504532 20.28315735 C-5.35757064 17.08392844 -5.35373295 13.88477047 -5.34814453 10.68554688 C-5.35016876 9.72758713 -5.35219299 8.76962738 -5.35427856 7.78263855 C-5.35145874 6.91605118 -5.34863892 6.04946381 -5.34573364 5.15661621 C-5.34535662 4.3992794 -5.34497959 3.6419426 -5.34459114 2.86165619 C-5.09163593 -0.61351911 -2.97273303 0.00427468 0 0 Z " fill="#3D37EA" transform="translate(781.21875,90.8671875)"/>
<path d="M0 0 C3.33890886 0.61762328 5.42032484 1.81524363 8.125 3.84375 C8.9085083 4.42632568 9.6920166 5.00890137 10.49926758 5.60913086 C11.32450928 6.23311768 12.14975098 6.85710449 13 7.5 C13.84780029 8.13494385 14.69560059 8.7698877 15.5690918 9.42407227 C17.26694457 10.69604925 18.96318231 11.97018516 20.65771484 13.24658203 C22.66060869 14.74593409 24.67614438 16.22256089 26.70703125 17.68359375 C34.94802191 23.66479075 41.29434505 28.8273627 44 39 C44.3677706 42.2608559 44.35229729 45.47190063 44.29296875 48.75 C44.28872391 49.64871826 44.28447906 50.54743652 44.28010559 51.47338867 C44.26344584 54.31591012 44.22581832 57.15769645 44.1875 60 C44.17243671 61.93879177 44.15875119 63.87759477 44.14648438 65.81640625 C44.1135841 70.54454979 44.06189115 75.27215069 44 80 C39.99919248 78.48887969 37.26453036 76.78679421 34 74 C29.86776068 70.53047831 25.67637159 67.19407284 21.375 63.9375 C2.91516008 49.84084548 2.91516008 49.84084548 1 38 C-0.42434166 25.3913392 -0.10730618 12.66708225 0 0 Z " fill="#3E37EA" transform="translate(89,48)"/>
<path d="M0 0 C0.99 0.33 1.98 0.66 3 1 C2.98045691 6.51421834 2.92836853 12.026868 2.84741211 17.54052734 C2.82435896 19.41218497 2.80986646 21.28396998 2.80444336 23.15576172 C2.75989494 36.00626602 2.46401083 45.41670397 -6.72265625 55.18359375 C-11.01516146 59.19228033 -15.66006995 62.65776172 -20.4375 66.0625 C-22.04125579 67.21881703 -23.64412323 68.37636716 -25.24609375 69.53515625 C-26.41954346 70.37844482 -26.41954346 70.37844482 -27.61669922 71.23876953 C-30.85129339 73.62909553 -33.96776573 76.15895193 -37.07446289 78.71264648 C-39 80 -39 80 -42 80 C-42.09789085 70.28705188 -42.09173529 60.58151738 -41.6875 50.875 C-41.66502197 50.11920654 -41.64254395 49.36341309 -41.61938477 48.5847168 C-41.14476502 38.80927208 -37.97008692 30.91630539 -31 24 C-26.23272736 19.97270237 -21.19536848 16.29160804 -16.16699219 12.60009766 C-12.90983489 10.1950268 -9.7042515 7.72485429 -6.5 5.25 C-5.4584375 4.45078125 -4.416875 3.6515625 -3.34375 2.828125 C-1.16444978 1.20533717 -1.16444978 1.20533717 0 0 Z " fill="#3D37E9" transform="translate(131,164)"/>
<path d="M0 0 C0.07478624 5.08623122 0.12889926 10.17213442 0.16479492 15.25878906 C0.17977675 16.98508284 0.20016939 18.71133926 0.22631836 20.4375 C0.57826152 44.28682506 0.57826152 44.28682506 -9.08984375 54.30078125 C-15.10968615 59.88428608 -21.53471559 64.94676353 -28 70 C-29.28410528 71.01660998 -30.56796903 72.03352513 -31.8515625 73.05078125 C-40.70080869 80 -40.70080869 80 -43 80 C-43.09931654 74.02267229 -43.17167995 68.0458312 -43.21972656 62.06787109 C-43.23976836 60.03686143 -43.26700947 58.00590894 -43.30175781 55.97509766 C-43.35060414 53.04575444 -43.37304343 50.117178 -43.390625 47.1875 C-43.41127014 46.28821777 -43.43191528 45.38893555 -43.45318604 44.46240234 C-43.45573995 37.19021962 -41.5931942 32.0508167 -36.875 26.5 C-29.35287312 19.9590201 -21.42494177 14.08586581 -13.2890625 8.34375 C-9.93908539 5.97364599 -6.67794513 3.49873074 -3.453125 0.9609375 C-2 0 -2 0 0 0 Z " fill="#3E37EA" transform="translate(194,48)"/>
<path d="M0 0 C0.96808594 0.3196875 1.93617188 0.639375 2.93359375 0.96875 C5.48664723 3.47836779 5.35241811 4.38712672 5.48828125 7.88671875 C5.45504764 9.82091459 5.39542126 11.75479669 5.3125 13.6875 C5.28994141 14.67556641 5.26738281 15.66363281 5.24414062 16.68164062 C5.18517988 19.12261559 5.10295048 21.56054868 5 24 C4.319375 23.72285156 3.63875 23.44570312 2.9375 23.16015625 C-0.35525731 21.85969226 -3.67005462 20.63958157 -7 19.4375 C-8.794375 18.78587891 -8.794375 18.78587891 -10.625 18.12109375 C-18.07418916 15.64665244 -25.85020857 14.7097314 -33.4375 17.1875 C-37.26056668 19.13256901 -38.62477511 19.96600698 -40 24 C-40.076793 28.30040822 -39.70006584 30.25406778 -36.734375 33.4140625 C-31.02790261 37.9193067 -23.51312789 39.71809602 -16.74023438 42.07421875 C-6.2296439 45.89514893 2.22420252 51.1713548 8 61 C11.12172124 68.66240668 11.03313426 77.12396008 8.09375 84.83984375 C4.26211473 92.40732341 -2.31722657 97.60259266 -10 101 C-11.32 101 -12.64 101 -14 101 C-14 100.34 -14 99.68 -14 99 C-13.443125 98.79246094 -12.88625 98.58492188 -12.3125 98.37109375 C-5.06072114 95.44343303 0.76121481 91.61094386 4.9375 84.875 C7.37693946 78.2741638 8.44082386 71.02854352 6.0234375 64.26953125 C3.88497261 59.82860876 1.717176 56.30415644 -2 53 C-2 52.34 -2 51.68 -2 51 C-2.78375 50.773125 -3.5675 50.54625 -4.375 50.3125 C-7.2828699 49.25965055 -9.72672852 48.1266074 -12.4375 46.6875 C-17.91964576 43.86739771 -23.61933054 42.03916265 -29.484375 40.2109375 C-32.8386575 39.05557353 -35.87011754 37.66094989 -39 36 C-39.33 36.66 -39.66 37.32 -40 38 C-40.33 36.68 -40.66 35.36 -41 34 C-42.32 34 -43.64 34 -45 34 C-45 35.32 -45 36.64 -45 38 C-43.515 38.495 -43.515 38.495 -42 39 C-44 41 -44 41 -45.9453125 41.1953125 C-47.96354167 41.13020833 -49.98177083 41.06510417 -52 41 C-51.67 42.65 -51.34 44.3 -51 46 C-50.01 46.33 -49.02 46.66 -48 47 C-48 47.66 -48 48.32 -48 49 C-45.03 49.33 -42.06 49.66 -39 50 C-38.67 50.99 -38.34 51.98 -38 53 C-36.21155694 53.96755948 -36.21155694 53.96755948 -33.9921875 54.61328125 C-33.16976563 54.89236328 -32.34734375 55.17144531 -31.5 55.45898438 C-29.7746386 56.01998358 -28.04810258 56.57738534 -26.3203125 57.13085938 C-19.24814136 59.54132765 -14.18698623 62.71952066 -10 69 C-9.53699084 74.00049898 -9.79655828 77.07320047 -13 81 C-15.17911036 83.00155322 -17.33381397 84.69899457 -20 86 C-22.9375 85.8125 -22.9375 85.8125 -25 85 C-22.63988133 83.81994066 -20.29234498 82.68863179 -17.875 81.625 C-15.03528317 80.23719987 -15.03528317 80.23719987 -13.5625 78.3125 C-12.46564706 73.80321569 -13.54900268 69.35299197 -15 65 C-17.13326836 63.96026816 -17.13326836 63.96026816 -20 63 C-21.27394379 62.42349122 -22.54437784 61.83920398 -23.8125 61.25 C-26.76551541 59.91176058 -29.73073624 58.72192646 -32.7890625 57.65234375 C-45.61362205 53.15298059 -56.03909329 47.92181341 -62.375 35.25 C-64.09095942 26.32701101 -63.81080318 17.89856994 -58.81640625 10.16796875 C-45.02135562 -7.76950501 -19.3262261 -6.657306 0 0 Z " fill="#3C37E8" transform="translate(353,94)"/>
<path d="M0 0 C3.49283688 2.05752351 6.58500995 4.19961385 9.6875 6.8125 C13.23586572 9.77108286 16.81883564 12.6401246 20.5078125 15.421875 C21.29969971 16.02281982 22.09158691 16.62376465 22.9074707 17.24291992 C24.47498672 18.42886012 26.04878856 19.60655138 27.62963867 20.7746582 C35.77505649 26.96674268 41.43674414 33.64647367 43 44 C43.42813024 50.2011245 43.28432548 56.41477207 43.1875 62.625 C43.17242441 64.31379014 43.1587411 66.0025933 43.14648438 67.69140625 C43.11370964 71.79459729 43.06208718 75.8971521 43 80 C38.70435594 78.38370968 35.61524269 76.35604172 32 73.5 C30.8530301 72.60004942 29.70588956 71.7003163 28.55859375 70.80078125 C27.97319824 70.33881348 27.38780273 69.8768457 26.78466797 69.40087891 C23.89851561 67.13538749 20.97848108 64.91437263 18.0625 62.6875 C16.03350466 61.13561355 14.012361 59.57339658 12 58 C11.00871094 57.28457031 10.01742187 56.56914062 8.99609375 55.83203125 C3.33010464 50.82006238 0.04476893 45.8641052 -0.47167969 38.16308594 C-0.66349357 32.39634866 -0.52426971 26.64112933 -0.375 20.875 C-0.34486273 18.84899796 -0.31749358 16.82295275 -0.29296875 14.796875 C-0.22727158 9.8635067 -0.12395743 4.93223429 0 0 Z " fill="#3D37EA" transform="translate(151,164)"/>
<path d="M0 0 C4.92547891 -0.09988492 9.85035096 -0.17194055 14.77661133 -0.21972656 C16.44761442 -0.239675 18.11854924 -0.26684401 19.78930664 -0.30175781 C30.86926505 -0.52727029 40.44061953 -0.47151401 49.9453125 6.0078125 C50.66460937 6.70648438 51.38390625 7.40515625 52.125 8.125 C53.34509766 9.30255859 53.34509766 9.30255859 54.58984375 10.50390625 C58.51443529 14.56843461 62.30009919 18.73035565 66 23 C67.29136608 24.4794291 68.5830087 25.95861688 69.875 27.4375 C70.40867187 28.05496094 70.94234375 28.67242187 71.4921875 29.30859375 C72.98351619 31.03080564 72.98351619 31.03080564 74.6953125 32.59765625 C76 34 76 34 76 36 C69.91687695 36.09951 63.83423662 36.17177017 57.75048828 36.21972656 C55.68464902 36.23973625 53.61886563 36.26695283 51.55322266 36.30175781 C48.56919497 36.35074716 45.58592154 36.37307564 42.6015625 36.390625 C41.23531235 36.42159271 41.23531235 36.42159271 39.84146118 36.45318604 C31.81626912 36.45594077 23.61469809 34.35499049 17.54199219 28.77587891 C13.61972423 24.2586881 10.41765545 19.17017258 7.125 14.1875 C6.33416671 13.00530146 5.54250692 11.82365537 4.75 10.64257812 C2.82375218 7.7680328 0.90883297 4.88614781 -1 2 C-0.67 1.34 -0.34 0.68 0 0 Z " fill="#3D37EA" transform="translate(41,104)"/>
<path d="M0 0 C0.76978683 0.00141495 1.53957367 0.0028299 2.33268738 0.00428772 C4.77782163 0.00986019 7.22286243 0.02240754 9.66796875 0.03515625 C11.33137888 0.04017481 12.99479045 0.0447371 14.65820312 0.04882812 C18.72399403 0.05982059 22.78971558 0.07706615 26.85546875 0.09765625 C25.70388185 3.13059024 24.50622838 5.87800866 22.71875 8.5859375 C22.30995605 9.20605713 21.90116211 9.82617676 21.47998047 10.46508789 C21.0470166 11.10696045 20.61405273 11.74883301 20.16796875 12.41015625 C19.71953613 13.07587646 19.27110352 13.74159668 18.80908203 14.42749023 C12.66399802 23.43169945 5.65809464 32.65683313 -5.14453125 36.09765625 C-8.17876373 36.3769923 -11.19704624 36.35427968 -14.2421875 36.328125 C-15.11346786 36.32766678 -15.98474823 36.32720856 -16.88243103 36.32673645 C-18.7189165 36.32372337 -20.55539962 36.31586542 -22.3918457 36.3034668 C-25.20077579 36.28519694 -28.00937601 36.28295739 -30.81835938 36.28320312 C-32.6054716 36.27828784 -34.39258159 36.27245947 -36.1796875 36.265625 C-37.43761864 36.26395576 -37.43761864 36.26395576 -38.72096252 36.26225281 C-39.50535202 36.25587296 -40.28974152 36.2494931 -41.09790039 36.24291992 C-41.78453262 36.23910812 -42.47116486 36.23529633 -43.17860413 36.23136902 C-45.26521091 36.08944821 -47.13445784 35.66247534 -49.14453125 35.09765625 C-49.14453125 33.09765625 -49.14453125 33.09765625 -47.20703125 31.03515625 C-46.18790622 30.05421169 -45.16672292 29.07540481 -44.14453125 28.09765625 C-42.55682418 26.53960075 -40.9737666 24.97679801 -39.39453125 23.41015625 C-38.6159375 22.64316406 -37.83734375 21.87617187 -37.03515625 21.0859375 C-35.0922251 19.23658635 -35.0922251 19.23658635 -34.14453125 17.09765625 C-33.48453125 17.09765625 -32.82453125 17.09765625 -32.14453125 17.09765625 C-31.87640625 16.50855469 -31.60828125 15.91945313 -31.33203125 15.3125 C-27.46656503 8.10289688 -20.5754232 3.98877498 -13.14453125 1.09765625 C-8.77313476 -0.03043 -4.48341438 -0.03127999 0 0 Z " fill="#3D37EA" transform="translate(217.14453125,103.90234375)"/>
<path d="M0 0 C0.87935211 0.02361099 1.75870422 0.04722198 2.66470337 0.07154846 C5.4563389 0.14774491 8.24766565 0.23195699 11.0390625 0.31640625 C12.93878728 0.36967107 14.83852686 0.42241113 16.73828125 0.47460938 C21.38040158 0.60330003 26.02226185 0.73917696 30.6640625 0.87890625 C28.86652274 4.73320181 26.51601794 7.39235814 23.6015625 10.50390625 C20.24872603 13.92100378 20.24872603 13.92100378 17.6640625 17.87890625 C17.0040625 17.87890625 16.3440625 17.87890625 15.6640625 17.87890625 C15.41785156 18.44609375 15.17164063 19.01328125 14.91796875 19.59765625 C10.83228212 27.03080576 3.74239136 32.51039098 -4.3359375 34.87890625 C-9.1033269 35.85047635 -13.73186018 36.01061159 -18.578125 35.9765625 C-19.34649689 35.97514755 -20.11486877 35.9737326 -20.90652466 35.97227478 C-23.34136989 35.96671308 -25.77612044 35.95416785 -28.2109375 35.94140625 C-29.86979033 35.93638629 -31.52864462 35.93182426 -33.1875 35.92773438 C-37.2370152 35.91675623 -41.28646034 35.89951831 -45.3359375 35.87890625 C-38.81356198 22.61884331 -29.63422588 6.65906538 -15.3359375 0.87890625 C-10.17307668 -0.27631416 -5.2485408 -0.16812491 0 0 Z " fill="#3D37EA" transform="translate(85.3359375,152.12109375)"/>
<path d="M0 0 C1.29762268 -0.00855011 1.29762268 -0.00855011 2.62145996 -0.01727295 C4.46084362 -0.02674408 6.30024441 -0.03326527 8.13964844 -0.03710938 C10.92934857 -0.04673899 13.71828791 -0.07770959 16.5078125 -0.109375 C18.29687064 -0.11591261 20.08593404 -0.12116009 21.875 -0.125 C23.11304382 -0.1435202 23.11304382 -0.1435202 24.37609863 -0.16241455 C33.40841768 -0.12840011 41.35361303 2.40609356 48.0390625 8.67578125 C55.27725132 16.334795 61.70645947 26.35374734 65.46875 36.203125 C60.93385373 36.25298853 56.3991211 36.28906137 51.86401367 36.31298828 C50.32492285 36.32297506 48.78585065 36.33656919 47.24682617 36.35400391 C31.17368917 36.53137705 20.37646708 34.78250429 8.46875 23.203125 C3.46875 17.91377315 3.46875 17.91377315 3.46875 15.203125 C2.80875 15.203125 2.14875 15.203125 1.46875 15.203125 C-2.81998219 11.04115336 -6.37245621 6.25719507 -9.53125 1.203125 C-7.4384276 -0.8896974 -2.8890161 0.01458959 0 0 Z " fill="#3D37E9" transform="translate(177.53125,151.796875)"/>
<path d="M0 0 C8.29216083 7.73054038 13.41604236 16.15631138 14.015625 27.640625 C14.2848851 42.65058917 14.2848851 42.65058917 10.8125 49.75 C10.48378906 50.49378906 10.15507813 51.23757812 9.81640625 52.00390625 C5.51332529 60.80363237 -2.28143026 67.69182418 -11.5390625 70.91796875 C-20.40182948 72.9391351 -30.98767484 73.16644995 -39.1875 68.75 C-41.4975 67.1 -43.8075 65.45 -46.1875 63.75 C-46.5175 75.3 -46.8475 86.85 -47.1875 98.75 C-53.7875 98.75 -60.3875 98.75 -67.1875 98.75 C-67.1875 64.1 -67.1875 29.45 -67.1875 -6.25 C-60.31452349 -6.87481605 -54.0092163 -7.36183141 -47.1875 -7.25 C-46.8575 -4.61 -46.5275 -1.97 -46.1875 0.75 C-45.66800781 0.34007813 -45.14851562 -0.06984375 -44.61328125 -0.4921875 C-31.15095946 -10.8937596 -13.35468726 -11.05737811 0 0 Z M-65.1875 -4.25 C-65.1875 29.08 -65.1875 62.41 -65.1875 96.75 C-59.9075 96.75 -54.6275 96.75 -49.1875 96.75 C-49.1875 85.2 -49.1875 73.65 -49.1875 61.75 C-48.5275 62.08 -47.8675 62.41 -47.1875 62.75 C-46.8575 62.09 -46.5275 61.43 -46.1875 60.75 C-45.5275 60.75 -44.8675 60.75 -44.1875 60.75 C-43.8575 61.74 -43.5275 62.73 -43.1875 63.75 C-41.00740889 65.1822829 -41.00740889 65.1822829 -38.375 66.375 C-37.50230469 66.80039063 -36.62960937 67.22578125 -35.73046875 67.6640625 C-27.65754364 71.11148674 -18.4155875 70.84689595 -10.1875 68 C-6.35550592 66.42244915 -3.10605763 64.76919755 -0.1875 61.75 C-0.1875 61.09 -0.1875 60.43 -0.1875 59.75 C0.40804687 59.50636719 1.00359375 59.26273437 1.6171875 59.01171875 C4.21858994 57.51660667 5.29560372 56.05972969 6.9375 53.5625 C7.43507813 52.82644531 7.93265625 52.09039062 8.4453125 51.33203125 C13.38998599 41.99366218 13.54249118 29.10439068 10.796875 19.01953125 C9.60983605 16.14131935 8.34739609 13.45660549 6.8125 10.75 C6.338125 9.85667969 5.86375 8.96335938 5.375 8.04296875 C3.71943566 5.61342808 2.83898002 4.91043623 0.125 3.9375 C-1.5146875 3.3496875 -1.5146875 3.3496875 -3.1875 2.75 C-3.620625 3.9565625 -3.620625 3.9565625 -4.0625 5.1875 C-5.1875 7.75 -5.1875 7.75 -7.1875 8.75 C-7.1875 9.74 -7.1875 10.73 -7.1875 11.75 C-7.8475 11.75 -8.5075 11.75 -9.1875 11.75 C-8.6925 12.74 -8.6925 12.74 -8.1875 13.75 C-7.6925 14.74 -7.6925 14.74 -7.1875 15.75 C-8.1775 16.08 -9.1675 16.41 -10.1875 16.75 C-9.5275 17.74 -8.8675 18.73 -8.1875 19.75 C-7.5275 19.75 -6.8675 19.75 -6.1875 19.75 C-5.94499067 21.37827694 -5.70901307 23.00771039 -5.5 24.640625 C-5.22037102 26.75213669 -5.22037102 26.75213669 -4.6875 28.796875 C-3.17922484 36.17664991 -6.18836632 41.62632656 -10.1875 47.75 C-13.8784013 52.012991 -18.38723833 54.33808032 -23.94921875 55.15625 C-31.03128029 55.38317854 -35.2959505 54.21161812 -41.12890625 50.16015625 C-43.22777707 48.58366089 -43.22777707 48.58366089 -46.1875 47.75 C-46.31125 46.904375 -46.435 46.05875 -46.5625 45.1875 C-47.09447395 41.74483189 -47.09447395 41.74483189 -48.3125 38.5625 C-49.65946598 32.69357682 -49.6717533 26.85938487 -47.03515625 21.3359375 C-45.82469496 19.4062166 -44.54393092 17.57843223 -43.1875 15.75 C-41.85417905 13.0833581 -42.51647967 11.58319697 -43.1875 8.75 C-45.1675 9.41 -47.1475 10.07 -49.1875 10.75 C-49.1875 8.75 -49.1875 8.75 -47.6875 7.125 C-47.1925 6.67125 -46.6975 6.2175 -46.1875 5.75 C-46.8475 4.76 -47.5075 3.77 -48.1875 2.75 C-48.72666146 0.0897977 -48.92120098 -2.54262663 -49.1875 -5.25 C-54.53123985 -5.25 -59.85559569 -4.60546029 -65.1875 -4.25 Z M-44.62109375 18.40234375 C-48.58300344 24.66737049 -48.08609639 32.66193364 -47.1875 39.75 C-44.97584909 45.79578343 -40.70026385 50.10913055 -34.87109375 52.83203125 C-29.29648776 54.73891976 -23.33179415 54.50447387 -17.8125 52.5625 C-12.12617256 48.63622629 -8.1231278 44.35081439 -6.71484375 37.42578125 C-5.74565704 30.15131088 -6.36239698 24.23741261 -10.375 18 C-14.11333629 13.30559495 -17.51703472 11.11955897 -23.43359375 10.30078125 C-32.59230018 9.857141 -38.54823034 11.40283088 -44.62109375 18.40234375 Z " fill="#3D37EA" transform="translate(629.1875,125.25)"/>
<path d="M0 0 C4.50386442 0.27296148 7.13877911 2.19698588 10.359375 5.14453125 C19.84639744 15.87390186 18.34555467 32.7768715 18.31567383 46.09155273 C18.31247406 49.08678296 18.33617554 52.08106049 18.36132812 55.07617188 C18.3635976 56.97916542 18.36430625 58.88216162 18.36328125 60.78515625 C18.372491 61.68089859 18.38170074 62.57664093 18.39118958 63.49952698 C18.38496078 64.32476364 18.37873199 65.15000031 18.37231445 66.00024414 C18.37294388 66.72651505 18.3735733 67.45278595 18.3742218 68.20106506 C18 70 18 70 15 72 C11.64453125 72.1953125 11.64453125 72.1953125 7.8125 72.125 C6.54019531 72.10695313 5.26789063 72.08890625 3.95703125 72.0703125 C2.98121094 72.04710937 2.00539063 72.02390625 1 72 C0.99413376 71.43925278 0.98826752 70.87850555 0.98222351 70.30076599 C0.91809622 64.4439182 0.83362745 58.5876101 0.73754883 52.73120117 C0.70437448 50.5480055 0.6763194 48.36472561 0.65356445 46.18139648 C0.61988096 43.03593183 0.56755724 39.89123376 0.51171875 36.74609375 C0.50532883 35.7760289 0.4989389 34.80596405 0.49235535 33.8065033 C0.33750362 26.60591762 -0.63056305 21.65839267 -5.5625 16.125 C-7.79885801 13.99612842 -7.79885801 13.99612842 -10 13 C-10 11.35 -10 9.7 -10 8 C-7.83125748 8.50603992 -6.00032373 8.99983813 -4 10 C-4.2475 9.4225 -4.495 8.845 -4.75 8.25 C-4.8325 7.5075 -4.915 6.765 -5 6 C-3.125 3.875 -3.125 3.875 -1 2 C-0.67 1.34 -0.34 0.68 0 0 Z " fill="#3D37EA" transform="translate(428,122)"/>
<path d="M0 0 C7.17029631 6.75115581 9.57250137 14.45869635 10.17022705 24.14654541 C10.22551141 27.17915057 10.22144996 30.20533222 10.19140625 33.23828125 C10.18857635 34.33393402 10.18574646 35.42958679 10.18283081 36.55844116 C10.17172888 40.02214972 10.14664314 43.48558972 10.12109375 46.94921875 C10.11105104 49.31249624 10.10192746 51.67577782 10.09375 54.0390625 C10.07182232 59.80088309 10.03736222 65.56250555 9.99609375 71.32421875 C3.06609375 71.32421875 -3.86390625 71.32421875 -11.00390625 71.32421875 C-11.05289063 68.00101562 -11.101875 64.6778125 -11.15234375 61.25390625 C-11.20638998 58.02697336 -11.26368323 54.80011327 -11.32128906 51.57324219 C-11.35951613 49.33469084 -11.39437986 47.09607938 -11.42578125 44.85742188 C-11.47156773 41.63519849 -11.52954039 38.41338668 -11.58984375 35.19140625 C-11.60139496 34.19430634 -11.61294617 33.19720642 -11.62484741 32.16989136 C-11.76241498 25.65819696 -12.00487634 20.5731274 -16.50390625 15.51171875 C-20.54165478 11.97868879 -23.25318924 12.03469592 -28.47265625 12.1171875 C-33.51126838 12.52929621 -36.68552046 14.74875941 -40.14135742 18.24853516 C-44.09501064 22.97697141 -43.75482728 27.54162792 -43.5546875 33.47265625 C-43.54382614 34.5257901 -43.53296478 35.57892395 -43.52177429 36.66397095 C-43.4817391 40.0101931 -43.4003897 43.35383793 -43.31640625 46.69921875 C-43.25907547 50.06566314 -43.21011346 53.43211332 -43.16459656 56.79873657 C-43.13335903 58.89001186 -43.09353915 60.98117921 -43.04450989 63.07211304 C-43.02506821 64.01043976 -43.00562653 64.94876648 -42.9855957 65.91552734 C-42.96527786 66.74490814 -42.94496002 67.57428894 -42.92402649 68.42880249 C-43.00390625 70.32421875 -43.00390625 70.32421875 -44.00390625 71.32421875 C-50.60390625 71.32421875 -57.20390625 71.32421875 -64.00390625 71.32421875 C-64.00390625 46.24421875 -64.00390625 21.16421875 -64.00390625 -4.67578125 C-63.01390625 -4.34578125 -62.02390625 -4.01578125 -61.00390625 -3.67578125 C-61.33390625 20.08421875 -61.66390625 43.84421875 -62.00390625 68.32421875 C-56.72390625 68.32421875 -51.44390625 68.32421875 -46.00390625 68.32421875 C-46.04056396 66.94234375 -46.07722168 65.56046875 -46.11499023 64.13671875 C-46.24215808 58.98584002 -46.32222133 53.8350986 -46.38842773 48.68310547 C-46.42352458 46.45793283 -46.47121568 44.2329204 -46.53198242 42.00830078 C-46.61737482 38.800704 -46.65670295 35.5952489 -46.6875 32.38671875 C-46.723629 31.39994141 -46.759758 30.41316406 -46.79698181 29.39648438 C-46.80062486 22.91699768 -45.45574093 19.61433186 -40.90174866 14.97827148 C-34.96016692 9.79992291 -30.60587942 8.90328909 -22.765625 8.9765625 C-18.51591539 9.51153302 -15.9253599 11.26921294 -13.00390625 14.32421875 C-9.80612924 18.694514 -8.90353176 22.57183547 -8.79858398 27.90917969 C-8.76866615 29.26012726 -8.76866615 29.26012726 -8.73814392 30.6383667 C-8.72143143 31.60204163 -8.70471893 32.56571655 -8.6875 33.55859375 C-8.6667189 34.55175598 -8.64593781 35.54491821 -8.62452698 36.56817627 C-8.55920876 39.73678757 -8.50022886 42.90548086 -8.44140625 46.07421875 C-8.39820418 48.22396677 -8.35458934 50.37370653 -8.31054688 52.5234375 C-8.20354554 57.79027824 -8.10174634 63.0572003 -8.00390625 68.32421875 C-5.69146833 68.35107287 -3.37894355 68.37054716 -1.06640625 68.38671875 C0.22136719 68.39832031 1.50914062 68.40992188 2.8359375 68.421875 C5.85907778 68.68954424 5.85907778 68.68954424 6.99609375 67.32421875 C7.10997513 64.27755681 7.16029818 61.25449785 7.1640625 58.20703125 C7.1673909 57.28010468 7.1707193 56.3531781 7.17414856 55.39816284 C7.17922647 53.42592872 7.18155662 51.45368596 7.18139648 49.48144531 C7.18355942 46.49659461 7.20163972 43.51212779 7.22070312 40.52734375 C7.65878567 19.59976865 7.65878567 19.59976865 -1.56640625 1.51171875 C-8.59871582 -3.58980558 -17.42656674 -5.98730105 -26.00390625 -4.67578125 C-32.25836553 -3.04128256 -36.45586746 -1.28139015 -41.00390625 3.32421875 C-43.75390625 3.57421875 -43.75390625 3.57421875 -46.00390625 3.32421875 C-46.02453125 2.72609375 -46.04515625 2.12796875 -46.06640625 1.51171875 C-46.89229792 -1.05397965 -46.89229792 -1.05397965 -50.25390625 -2.36328125 C-53.21225189 -3.39870223 -55.91704331 -4.20807474 -59.00390625 -4.67578125 C-59.00390625 -5.00578125 -59.00390625 -5.33578125 -59.00390625 -5.67578125 C-53.72390625 -5.67578125 -48.44390625 -5.67578125 -43.00390625 -5.67578125 C-42.67390625 -3.69578125 -42.34390625 -1.71578125 -42.00390625 0.32421875 C-41.30265625 -0.27390625 -40.60140625 -0.87203125 -39.87890625 -1.48828125 C-27.75819948 -10.71055814 -11.5144441 -9.62903805 0 0 Z " fill="#2D2AC8" transform="translate(438.00390625,124.67578125)"/>
<path d="M0 0 C1.27423828 -0.00193359 1.27423828 -0.00193359 2.57421875 -0.00390625 C3.91419922 0.00189453 3.91419922 0.00189453 5.28125 0.0078125 C6.17457031 0.00394531 7.06789063 0.00007813 7.98828125 -0.00390625 C8.83777344 -0.00261719 9.68726563 -0.00132813 10.5625 0 C11.34689453 0.00112793 12.13128906 0.00225586 12.93945312 0.00341797 C14.78125 0.1328125 14.78125 0.1328125 15.78125 1.1328125 C15.87867068 2.47120723 15.90756559 3.81468075 15.90823364 5.15661621 C15.91105347 6.02320358 15.91387329 6.88979095 15.91677856 7.78263855 C15.91475433 8.7405983 15.9127301 9.69855804 15.91064453 10.68554688 C15.91239685 11.68870438 15.91414917 12.69186188 15.91595459 13.72541809 C15.92037516 17.05915022 15.91743439 20.39282979 15.9140625 23.7265625 C15.91473548 26.03202322 15.91570545 28.33748386 15.91696167 30.64294434 C15.91843892 35.48185907 15.91628321 40.32075537 15.91162109 45.15966797 C15.9059238 51.37775895 15.90920266 57.59580678 15.91519356 63.81389618 C15.91879843 68.57664315 15.91766092 73.3393798 15.91506577 78.10212708 C15.91439629 80.39557399 15.91522562 82.68902182 15.91754532 84.98246765 C15.92007064 88.18169656 15.91623295 91.38085453 15.91064453 94.58007812 C15.91266876 95.53803787 15.91469299 96.49599762 15.91677856 97.48298645 C15.91254883 98.78286751 15.91254883 98.78286751 15.90823364 100.10900879 C15.90785662 100.8663456 15.90747959 101.6236824 15.90709114 102.40396881 C15.78125 104.1328125 15.78125 104.1328125 14.78125 105.1328125 C13.37776265 105.23141381 11.96944523 105.26360187 10.5625 105.265625 C9.28826172 105.26755859 9.28826172 105.26755859 7.98828125 105.26953125 C7.09496094 105.26566406 6.20164062 105.26179688 5.28125 105.2578125 C4.38792969 105.26167969 3.49460937 105.26554687 2.57421875 105.26953125 C1.72472656 105.26824219 0.87523437 105.26695312 0 105.265625 C-0.78439453 105.26449707 -1.56878906 105.26336914 -2.37695312 105.26220703 C-4.21875 105.1328125 -4.21875 105.1328125 -5.21875 104.1328125 C-5.31617068 102.79441777 -5.34506559 101.45094425 -5.34573364 100.10900879 C-5.34855347 99.24242142 -5.35137329 98.37583405 -5.35427856 97.48298645 C-5.35225433 96.5250267 -5.3502301 95.56706696 -5.34814453 94.58007812 C-5.34989685 93.57692062 -5.35164917 92.57376312 -5.35345459 91.54020691 C-5.35787516 88.20647478 -5.35493439 84.87279521 -5.3515625 81.5390625 C-5.35223548 79.23360178 -5.35320545 76.92814114 -5.35446167 74.62268066 C-5.35593892 69.78376593 -5.35378321 64.94486963 -5.34912109 60.10595703 C-5.3434238 53.88786605 -5.34670266 47.66981822 -5.35269356 41.45172882 C-5.35629843 36.68898185 -5.35516092 31.9262452 -5.35256577 27.16349792 C-5.35189629 24.87005101 -5.35272562 22.57660318 -5.35504532 20.28315735 C-5.35757064 17.08392844 -5.35373295 13.88477047 -5.34814453 10.68554688 C-5.35016876 9.72758713 -5.35219299 8.76962738 -5.35427856 7.78263855 C-5.35145874 6.91605118 -5.34863892 6.04946381 -5.34573364 5.15661621 C-5.34535662 4.3992794 -5.34497959 3.6419426 -5.34459114 2.86165619 C-5.09163593 -0.61351911 -2.97273303 0.00427468 0 0 Z M-3.21875 2.1328125 C-3.54875 35.7928125 -3.87875 69.4528125 -4.21875 104.1328125 C1.72125 104.1328125 7.66125 104.1328125 13.78125 104.1328125 C13.78125 70.4728125 13.78125 36.8128125 13.78125 2.1328125 C8.17125 2.1328125 2.56125 2.1328125 -3.21875 2.1328125 Z " fill="#2829BA" transform="translate(781.21875,90.8671875)"/>
<path d="M0 0 C0.495 0.99 0.495 0.99 1 2 C0.20335937 2.17015625 -0.59328125 2.3403125 -1.4140625 2.515625 C-7.37408504 3.87874451 -12.15067596 5.09688553 -17 9 C-18.423125 10.11375 -18.423125 10.11375 -19.875 11.25 C-20.926875 12.11625 -20.926875 12.11625 -22 13 C-22.66 12.67 -23.32 12.34 -24 12 C-24.59355614 9.35139573 -24.74209269 6.70802678 -25 4 C-29.95 4 -34.9 4 -40 4 C-40 37.33 -40 70.66 -40 105 C-34.72 105 -29.44 105 -24 105 C-24.495 86.685 -24.495 86.685 -25 68 C-22 71 -22 71 -21.65942383 74.64526367 C-21.65989796 76.15291548 -21.67679756 77.66062005 -21.70703125 79.16796875 C-21.71127609 79.96278152 -21.71552094 80.7575943 -21.71989441 81.57649231 C-21.7366807 84.11384021 -21.77433176 86.65039238 -21.8125 89.1875 C-21.82754695 90.90819165 -21.84123534 92.62889576 -21.85351562 94.34960938 C-21.8840319 98.56695906 -21.94275008 102.78258943 -22 107 C-28.6 107 -35.2 107 -42 107 C-42 72.35 -42 37.7 -42 2 C-35.12702349 1.37518395 -28.8217163 0.88816859 -22 1 C-21.67 3.64 -21.34 6.28 -21 9 C-20.48050781 8.59007813 -19.96101562 8.18015625 -19.42578125 7.7578125 C-12.9234346 2.73381823 -8.14037576 0.82783482 0 0 Z " fill="#1E1BD8" transform="translate(604,117)"/>
<path d="M0 0 C0.33 0 0.66 0 1 0 C0.54084601 7.62757845 -2.11167713 14.07827762 -4.9375 21.125 C-5.84350768 23.41885254 -6.74849043 25.71311022 -7.65234375 28.0078125 C-8.05445068 29.01473145 -8.45655762 30.02165039 -8.87084961 31.05908203 C-10.00528992 34.01377781 -11.02187267 36.99033439 -12 40 C-8.73386305 41.91302307 -6.00554752 42.35674661 -2.25 42.625 C-1.3228418 42.69122559 -0.39568359 42.75745117 0.55957031 42.82568359 C1.36491211 42.88320801 2.17025391 42.94073242 3 43 C3.22139648 42.40461426 3.44279297 41.80922852 3.67089844 41.19580078 C4.68274604 38.49982182 5.71603701 35.81257048 6.75 33.125 C7.09804688 32.18785156 7.44609375 31.25070313 7.8046875 30.28515625 C8.15273438 29.38925781 8.50078125 28.49335938 8.859375 27.5703125 C9.17358398 26.74289551 9.48779297 25.91547852 9.81152344 25.06298828 C11.26857854 22.53379445 12.32906868 22.09037782 15 21 C16.97938538 20.72584534 16.97938538 20.72584534 19.07836914 20.69360352 C20.26463646 20.66962242 20.26463646 20.66962242 21.47486877 20.64515686 C22.31976364 20.63979416 23.16465851 20.63443146 24.03515625 20.62890625 C24.91022324 20.61987778 25.78529022 20.6108493 26.68687439 20.60154724 C28.53348373 20.58706213 30.38014419 20.57816233 32.22680664 20.57446289 C35.05637147 20.56252585 37.88378325 20.51329186 40.71289062 20.46289062 C42.50780186 20.45343071 44.30272647 20.44619361 46.09765625 20.44140625 C46.94457535 20.42187393 47.79149445 20.40234161 48.66407776 20.38221741 C51.05102539 20.40063477 51.05102539 20.40063477 55 21 C56.93139648 23.40991211 56.93139648 23.40991211 58 26 C58.99 26.99 58.99 26.99 60 28 C60.34375 29.91015625 60.34375 29.91015625 60.5 32.0625 C60.665 33.361875 60.83 34.66125 61 36 C61.66 36.33 62.32 36.66 63 37 C63.495 40.465 63.495 40.465 64 44 C69.61 43.34 75.22 42.68 81 42 C80.01 38.7 79.02 35.4 78 32 C78.99 31.505 78.99 31.505 80 31 C80.67467562 32.74692795 81.33944156 34.49768525 82 36.25 C82.37125 37.22453125 82.7425 38.1990625 83.125 39.203125 C84 42 84 42 84 46 C77.07 46 70.14 46 63 46 C59.93867333 38.68683073 56.94504732 31.36261831 54 24 C40.8 24 27.6 24 14 24 C10.94997693 31.32005537 7.92559331 38.63183907 5 46 C-1.93 46 -8.86 46 -16 46 C-16 43.69 -16 41.38 -16 39 C-15.34 39 -14.68 39 -14 39 C-13.84942139 38.45359863 -13.69884277 37.90719727 -13.54370117 37.34423828 C-11.24994731 29.34905366 -8.29447258 21.63061447 -5.3125 13.875 C-4.79589779 12.52356214 -4.27961945 11.17200042 -3.76367188 9.8203125 C-2.51283904 6.54544107 -1.257653 3.2722593 0 0 Z " fill="#2F2ECF" transform="translate(680,150)"/>
<path d="M0 0 C3.75339814 0.81277116 6.12595342 2.30167682 9.25 4.5625 C10.14203125 5.20316406 11.0340625 5.84382813 11.953125 6.50390625 C12.96632813 7.24447266 12.96632813 7.24447266 14 8 C13.34 8.66 12.68 9.32 12 10 C10.68 10 9.36 10 8 10 C5.65963637 10.95804921 5.65963637 10.95804921 4 13 C3.44607893 16.19356333 3.44607893 16.19356333 3.609375 19.85546875 C3.61503479 20.51710526 3.62069458 21.17874176 3.62652588 21.86042786 C3.64888753 23.97019332 3.69907629 26.07824952 3.75 28.1875 C3.7700656 29.61911606 3.78831628 31.0507588 3.8046875 32.48242188 C3.84874931 35.98883515 3.91777223 39.49425072 4 43 C4.99 43.33 5.98 43.66 7 44 C7.09667969 44.74765625 7.19335938 45.4953125 7.29296875 46.265625 C9.53682859 54.94353598 21.1858897 61.05678943 28 66 C29.48163497 67.10085234 30.96116454 68.2045507 32.4375 69.3125 C33.01371094 69.74175781 33.58992188 70.17101562 34.18359375 70.61328125 C36.4862477 72.37122136 38.73981318 74.18791979 41 76 C41.01981934 74.98574951 41.03963867 73.97149902 41.06005859 72.92651367 C41.13613023 69.16356576 41.22484491 65.40100377 41.31738281 61.63842773 C41.35566618 60.00992451 41.39052024 58.38133691 41.421875 56.75268555 C41.46754002 54.41163986 41.52553077 52.0711747 41.5859375 49.73046875 C41.60326431 48.63813179 41.60326431 48.63813179 41.62094116 47.52372742 C41.72878512 43.83038626 41.89884276 42.15173586 44 39 C44 52.53 44 66.06 44 80 C39.59786682 78.23914673 37.4819905 76.97243091 34 74 C29.86776068 70.53047831 25.67637159 67.19407284 21.375 63.9375 C2.91516008 49.84084548 2.91516008 49.84084548 1 38 C-0.42434166 25.3913392 -0.10730618 12.66708225 0 0 Z " fill="#3834E0" transform="translate(89,48)"/>
<path d="M0 0 C0.66 0.33 1.32 0.66 2 1 C2 1.66 2 2.32 2 3 C4.64 2.67 7.28 2.34 10 2 C9.01 2.66 8.02 3.32 7 4 C7.68707031 4.26554687 8.37414062 4.53109375 9.08203125 4.8046875 C10.43361328 5.33449219 10.43361328 5.33449219 11.8125 5.875 C12.70582031 6.22304687 13.59914063 6.57109375 14.51953125 6.9296875 C17 8 17 8 20 10 C20 10.66 20 11.32 20 12 C18.948125 11.56880859 18.948125 11.56880859 17.875 11.12890625 C14.9404836 9.97663011 11.98882029 8.94012721 9 7.9375 C7.989375 7.59589844 6.97875 7.25429687 5.9375 6.90234375 C-2.98121748 4.16268452 -11.55174366 3.70176432 -20 8 C-22.72626703 10.97410949 -22.99041022 12.46297239 -23.0625 16.5 C-21.73914285 20.85929415 -19.76683934 22.67668469 -16 25 C-10.69633023 27.33154924 -5.2090817 29.17174155 0.25976562 31.07421875 C10.7703561 34.89514893 19.22420252 40.1713548 25 50 C28.12172124 57.66240668 28.03313426 66.12396008 25.09375 73.83984375 C21.26211473 81.40732341 14.68277343 86.60259266 7 90 C5.68 90 4.36 90 3 90 C3 89.34 3 88.68 3 88 C3.556875 87.79246094 4.11375 87.58492188 4.6875 87.37109375 C11.93927886 84.44343303 17.76121481 80.61094386 21.9375 73.875 C24.37693946 67.2741638 25.44082386 60.02854352 23.0234375 53.26953125 C20.88497261 48.82860876 18.717176 45.30415644 15 42 C15 41.34 15 40.68 15 40 C14.21625 39.773125 13.4325 39.54625 12.625 39.3125 C9.7171301 38.25965055 7.27327148 37.1266074 4.5625 35.6875 C0.29220278 33.47805726 -4.04419284 31.97324351 -8.625 30.5625 C-14.45390218 28.70071171 -20.03316688 26.89500577 -24 22 C-25.83446437 18.29722506 -26.5705557 15.00080005 -25.421875 10.97265625 C-23.26033657 6.64042033 -20.60365572 4.66515207 -16 3 C-15.01 3 -14.02 3 -13 3 C-12.67 2.34 -12.34 1.68 -12 1 C-10.82630859 1.01740234 -10.82630859 1.01740234 -9.62890625 1.03515625 C-8.61699219 1.04417969 -7.60507812 1.05320312 -6.5625 1.0625 C-5.04849609 1.07990234 -5.04849609 1.07990234 -3.50390625 1.09765625 C-1.05978933 1.28612676 -1.05978933 1.28612676 0 0 Z " fill="#2E29C3" transform="translate(336,105)"/>
<path d="M0 0 C4.92547891 -0.09988492 9.85035096 -0.17194055 14.77661133 -0.21972656 C16.44761442 -0.239675 18.11854924 -0.26684401 19.78930664 -0.30175781 C30.86926505 -0.52727029 40.44061953 -0.47151401 49.9453125 6.0078125 C50.66460937 6.70648438 51.38390625 7.40515625 52.125 8.125 C53.34509766 9.30255859 53.34509766 9.30255859 54.58984375 10.50390625 C58.51443529 14.56843461 62.30009919 18.73035565 66 23 C67.29136608 24.4794291 68.5830087 25.95861688 69.875 27.4375 C70.40867187 28.05496094 70.94234375 28.67242187 71.4921875 29.30859375 C72.98351619 31.03080564 72.98351619 31.03080564 74.6953125 32.59765625 C76 34 76 34 76 36 C69.91687695 36.09951 63.83423662 36.17177017 57.75048828 36.21972656 C55.68464902 36.23973625 53.61886563 36.26695283 51.55322266 36.30175781 C48.56919497 36.35074716 45.58592154 36.37307564 42.6015625 36.390625 C41.23531235 36.42159271 41.23531235 36.42159271 39.84146118 36.45318604 C31.81626912 36.45594077 23.61469809 34.35499049 17.54199219 28.77587891 C13.61972423 24.2586881 10.41765545 19.17017258 7.125 14.1875 C6.33416671 13.00530146 5.54250692 11.82365537 4.75 10.64257812 C2.82375218 7.7680328 0.90883297 4.88614781 -1 2 C-0.67 1.34 -0.34 0.68 0 0 Z M3 2 C3.63063771 6.80861256 4.32050831 8.78044477 8 12 C8.33 12.66 8.66 13.32 9 14 C9.66 14 10.32 14 11 14 C11.20625 14.66 11.4125 15.32 11.625 16 C15.08224177 23.54307294 20.36866749 29.49622299 28 33 C30.68563317 33.20962097 30.68563317 33.20962097 33 33 C33 33.66 33 34.32 33 35 C46.2 35 59.4 35 73 35 C68.5324582 29.0432776 64.18907336 23.73809483 59.125 18.375 C58.45597656 17.65054688 57.78695312 16.92609375 57.09765625 16.1796875 C47.79699627 6.28765608 41.22526098 2.40399532 27.41601562 1.85839844 C23.6911548 1.80451434 19.97483537 1.82445422 16.25 1.875 C14.96867187 1.88402344 13.68734375 1.89304687 12.3671875 1.90234375 C9.24458779 1.92564673 6.12239975 1.95835946 3 2 Z " fill="#2E2AC3" transform="translate(41,104)"/>
<path d="M0 0 C12.74890598 1.61486142 20.78465949 4.75356055 29 15 C35.95324885 26.46267801 37.84633701 38.59072991 35.50390625 51.796875 C34.81954529 53.97755061 34.00366062 55.94798132 33 58 C32.67128906 58.74378906 32.34257813 59.48757812 32.00390625 60.25390625 C27.70082529 69.05363237 19.90606974 75.94182418 10.6484375 79.16796875 C1.73567137 81.20053747 -8.74864817 81.38252734 -17 77 C-19.80080909 75.14693944 -22.43169056 73.16241858 -25 71 C-24.67 70.01 -24.34 69.02 -24 68 C-23.52691406 68.39832031 -23.05382812 68.79664063 -22.56640625 69.20703125 C-13.68650754 76.32133606 -5.34648584 78.1658277 6 77 C15.46195275 75.10508289 22.63135149 69.74199059 28.44140625 62.10546875 C34.09165223 52.86908879 34.18543586 41.46875536 33 31 C31.78653315 26.69196711 30.08007415 22.94583764 28 19 C27.31514636 17.34072374 26.64277668 15.67602517 26 14 C25.34 14 24.68 14 24 14 C23.278125 13.2575 22.55625 12.515 21.8125 11.75 C15.40246782 5.48241298 8.57316996 3.85822403 0 2 C0 1.34 0 0.68 0 0 Z " fill="#2E2AC1" transform="translate(607,117)"/>
<path d="M0 0 C0 0.66 0 1.32 0 2 C-0.83402344 2.00257813 -1.66804687 2.00515625 -2.52734375 2.0078125 C-10.49569959 2.28163916 -16.17648099 3.30676106 -22 9 C-26.45558033 15.34582653 -25.85665172 23.53258312 -25 31 C-22.97332001 36.7855651 -19.36677805 40.0832728 -14 43 C-8.26665804 44.91111399 -2.0787043 44.85375355 3.5 42.5625 C4.325 42.046875 5.15 41.53125 6 41 C6.99 40.67 7.98 40.34 9 40 C13.65150996 32.3594331 15.09818922 23.66474438 13 15 C10.4793169 8.78162062 6.98098765 5.81458242 1 3 C1 2.34 1 1.68 1 1 C4.28909002 1.59275908 6.08905571 2.65056017 8.5625 4.875 C9.14128906 5.38804687 9.72007812 5.90109375 10.31640625 6.4296875 C10.87199219 6.94789063 11.42757812 7.46609375 12 8 C12.54269531 8.495 13.08539062 8.99 13.64453125 9.5 C15.90150875 11.99763505 16.26763446 14.75666688 17 18 C17.18304687 18.67160156 17.36609375 19.34320313 17.5546875 20.03515625 C18.86342436 26.36071774 16.86396183 30.70325398 13.81640625 36.25390625 C10.22529172 41.6830536 6.17440926 44.93577442 0 47 C-9.01322242 48.32584884 -14.7705273 46.29521151 -22 41 C-22.99 40.34 -23.98 39.68 -25 39 C-28.52433789 31.23043692 -30.21855399 23.33915294 -28 15 C-26.73070371 11.92439744 -25.12570586 9.54870527 -23 7 C-22.47792969 6.32453125 -21.95585938 5.6490625 -21.41796875 4.953125 C-15.40568583 -1.5962028 -8.19290953 -0.67207461 0 0 Z " fill="#2C28C7" transform="translate(608,134)"/>
<path d="M0 0 C0 0.66 0 1.32 0 2 C-1.65 2.66 -3.3 3.32 -5 4 C-5 4.33 -5 4.66 -5 5 C-6.670625 5.12375 -6.670625 5.12375 -8.375 5.25 C-9.57125 5.4975 -10.7675 5.745 -12 6 C-13.14209817 7.78228936 -13.14209817 7.78228936 -14 10 C-15.46093294 11.26614188 -16.92647202 12.52845844 -18.4375 13.734375 C-24.25244849 18.44448328 -29.03641621 24.43083736 -34 30 C-31.95999859 32.04000141 -27.87046702 31.42205812 -25.0625 31.5625 C-23.86306763 31.6229248 -23.86306763 31.6229248 -22.6394043 31.68457031 C-16.86580999 31.95308335 -11.09173721 32.16211438 -5.3125 32.25 C-4.21917358 32.28202515 -4.21917358 32.28202515 -3.10375977 32.31469727 C4.58555088 32.3635042 9.70481662 29.33668188 16 25 C17.32514632 24.31720468 18.65703258 23.64703998 20 23 C15.51404858 29.02061901 11.29470165 32.8267846 4 35 C-2.75048246 35.82887327 -9.59130048 35.51590056 -16.375 35.375 C-18.22263778 35.3584656 -20.07029656 35.34412463 -21.91796875 35.33203125 C-35.71304615 35.19391937 -35.71304615 35.19391937 -40 34 C-40 32 -40 32 -38.0625 29.9375 C-37.04337497 28.95655544 -36.02219167 27.97774856 -35 27 C-33.41229293 25.4419445 -31.82923535 23.87914176 -30.25 22.3125 C-29.47140625 21.54550781 -28.6928125 20.77851562 -27.890625 19.98828125 C-25.94769385 18.1389301 -25.94769385 18.1389301 -25 16 C-24.34 16 -23.68 16 -23 16 C-22.731875 15.41089844 -22.46375 14.82179688 -22.1875 14.21484375 C-17.95794312 6.32616366 -8.99368171 0 0 0 Z " fill="#2926CC" transform="translate(208,105)"/>
<path d="M0 0 C4.46697748 3.99722185 5.7096162 9.12043475 6.15032959 15.00842285 C6.36758691 20.54732137 6.27388894 26.0841544 6.1875 31.625 C6.17242441 33.31379014 6.1587411 35.0025933 6.14648438 36.69140625 C6.11370964 40.79459729 6.06208718 44.8971521 6 49 C1.70435594 47.38370968 -1.38475731 45.35604172 -5 42.5 C-6.1469699 41.60004942 -7.29411044 40.7003163 -8.44140625 39.80078125 C-9.31949951 39.10782959 -9.31949951 39.10782959 -10.21533203 38.40087891 C-13.10148439 36.13538749 -16.02151892 33.91437263 -18.9375 31.6875 C-20.96649534 30.13561355 -22.987639 28.57339658 -25 27 C-25.78733521 26.38995117 -25.78733521 26.38995117 -26.59057617 25.76757812 C-31.41879143 21.91399561 -34.60520028 17.69096317 -37 12 C-37.18884163 9.26905957 -36.80859063 7.6567978 -36 5 C-35.67 5 -35.34 5 -35 5 C-34.92523438 5.556875 -34.85046875 6.11375 -34.7734375 6.6875 C-32.5803043 19.4162731 -22.94258023 25.88446668 -13 33 C-10.74269152 34.27340752 -10.74269152 34.27340752 -9 35 C-9 35.66 -9 36.32 -9 37 C-8.01 37 -7.02 37 -6 37 C-4.31126121 38.64429829 -2.64694485 40.31384218 -1 42 C0.6473977 43.03143522 2.3115706 44.03719996 4 45 C3.93043189 40.62528072 3.8421463 36.2514305 3.73754883 31.87744141 C3.70458303 30.39381957 3.67646583 28.91008085 3.65356445 27.42626953 C3.53006306 19.63254317 3.34787754 12.31119213 0.63208008 4.89599609 C0 3 0 3 0 0 Z " fill="#2926C6" transform="translate(188,195)"/>
<path d="M0 0 C6.6 0 13.2 0 20 0 C20 25.08 20 50.16 20 76 C13.4 76 6.8 76 0 76 C0 75.67 0 75.34 0 75 C5.94 74.67 11.88 74.34 18 74 C18 50.24 18 26.48 18 2 C12.72 2 7.44 2 2 2 C1.67 3.65 1.34 5.3 1 7 C0.67 7 0.34 7 0 7 C0 4.69 0 2.38 0 0 Z " fill="#2E28D2" transform="translate(522,120)"/>
<path d="M0 0 C-3.15432767 2.10288511 -4.4711266 2.28671901 -8.125 2.6875 C-19.22667102 4.55246325 -25.40623816 13.33260069 -31.625 22 C-34.12430923 25.52843656 -36.12963595 29.10057435 -38 33 C-34.10418244 33.02911003 -30.208393 33.04683587 -26.3125 33.0625 C-24.65831055 33.07506836 -24.65831055 33.07506836 -22.97070312 33.08789062 C-21.90400391 33.09111328 -20.83730469 33.09433594 -19.73828125 33.09765625 C-18.75899658 33.10289307 -17.77971191 33.10812988 -16.77075195 33.11352539 C-14.07100083 33.0029091 -11.63454088 32.57399359 -9 32 C-7.39696373 31.93628632 -5.79162328 31.91355786 -4.1875 31.9375 C-3.00220703 31.95103516 -3.00220703 31.95103516 -1.79296875 31.96484375 C-1.20128906 31.97644531 -0.60960937 31.98804688 0 32 C0 32.66 0 33.32 0 34 C-5.64195799 35.60484829 -10.5892461 36.2786615 -16.4375 36.1953125 C-17.20304199 36.1924826 -17.96858398 36.18965271 -18.75732422 36.18673706 C-21.17171724 36.17565648 -23.58572154 36.15057601 -26 36.125 C-27.64973418 36.11495448 -29.29947424 36.1058314 -30.94921875 36.09765625 C-34.96629268 36.07575712 -38.98308073 36.04131325 -43 36 C-36.47762448 22.73993706 -27.29828838 6.78015913 -13 1 C-8.63502149 -0.02159071 -4.4725804 -0.08945161 0 0 Z " fill="#2120DA" transform="translate(83,152)"/>
<path d="M0 0 C3.43503459 1.44065645 5.66035885 3.12135292 8 6 C9.07507813 7.28003906 9.07507813 7.28003906 10.171875 8.5859375 C12.63155571 13.17944378 12.55429928 16.87590246 12.4375 22 C12.44458984 22.8765625 12.45167969 23.753125 12.45898438 24.65625 C12.40842461 29.8211247 11.96279911 33.59530532 9 38 C6.80859375 40.08203125 6.80859375 40.08203125 4.4375 41.8125 C3.65246094 42.39644531 2.86742187 42.98039062 2.05859375 43.58203125 C-1.41140651 45.97218323 -3.42714744 46.11131224 -7.625 46.0625 C-8.62789063 46.05347656 -9.63078125 46.04445312 -10.6640625 46.03515625 C-11.43492187 46.02355469 -12.20578125 46.01195312 -13 46 C-12.67 45.34 -12.34 44.68 -12 44 C-10.14453125 43.69140625 -10.14453125 43.69140625 -7.8125 43.5625 C-1.91903172 43.00210682 1.59523776 41.46861507 5.75 37.125 C10.61905718 30.36242058 10.64250488 24.13170236 10 16 C8.84317256 10.84850282 6.02613817 7.35511514 2 4 C-4.16977292 1.03436125 -10.836941 0.98543391 -17.3125 3.0625 C-24.35998647 8.14324606 -27.07560274 13.61030315 -29 22 C-29.33 22 -29.66 22 -30 22 C-30.125 14.375 -30.125 14.375 -29 11 C-28.34 11 -27.68 11 -27 11 C-26.835 10.29875 -26.67 9.5975 -26.5 8.875 C-21.14081627 -1.39676882 -10.40114806 -1.93969522 0 0 Z " fill="#2F2BC2" transform="translate(511,135)"/>
<path d="M0 0 C6.93 0 13.86 0 21 0 C25 9 25 9 25 12 C24.01 11.67 23.02 11.34 22 11 C21.01 8.36 20.02 5.72 19 3 C12.73 3 6.46 3 0 3 C-0.33 4.65 -0.66 6.3 -1 8 C-1.57726786 9.59495489 -2.19815916 11.17461141 -2.85546875 12.73828125 C-3.22784668 13.63345459 -3.60022461 14.52862793 -3.98388672 15.45092773 C-4.3810791 16.39524658 -4.77827148 17.33956543 -5.1875 18.3125 C-8.5272553 26.35090427 -11.72089506 34.41531253 -14.7109375 42.58984375 C-16.04243584 46.1122621 -17.49300386 49.549772 -19 53 C-19.66 53 -20.32 53 -21 53 C-18.75948917 44.66580606 -15.66900308 36.70641593 -12.49414062 28.69580078 C-11.62765673 26.50671197 -10.7704822 24.31413641 -9.9140625 22.12109375 C-6.93744045 14.54937971 -3.79049949 7.21188667 0 0 Z " fill="#2C26C2" transform="translate(704,91)"/>
<path d="M0 0 C8.11386126 0.28978076 12.43547753 3.19736166 17.9296875 9.05859375 C34 28.19452811 34 28.19452811 34 35 C29.46510373 35.04986353 24.9303711 35.08593637 20.39526367 35.10986328 C18.85617285 35.11985006 17.31710065 35.13344419 15.77807617 35.15087891 C7.62298961 35.24087337 -0.08976364 35.28577933 -8 33 C-8 32.34 -8 31.68 -8 31 C-7.37633545 31.06566162 -6.7526709 31.13132324 -6.11010742 31.19897461 C1.81629277 31.98176683 9.72852994 32.31081665 17.6875 32.5625 C19.61625977 32.62727539 19.61625977 32.62727539 21.58398438 32.69335938 C24.72257494 32.79836798 27.86123004 32.90052405 31 33 C26.33085609 25.90796044 21.58053932 18.96263872 16.46875 12.1796875 C15 10 15 10 15 8 C11.79029551 6.36457914 8.53192428 4.85968003 5.25 3.375 C4.26515625 2.92898437 3.2803125 2.48296875 2.265625 2.0234375 C1.51796875 1.68570313 0.7703125 1.34796875 0 1 C0 0.67 0 0.34 0 0 Z " fill="#2C28BE" transform="translate(209,153)"/>
<path d="M0 0 C0.556875 0.70125 1.11375 1.4025 1.6875 2.125 C2.8321875 3.548125 2.8321875 3.548125 4 5 C4.42023438 5.53882813 4.84046875 6.07765625 5.2734375 6.6328125 C8.03304594 10.12043661 8.03304594 10.12043661 12 12 C12 12.66 12 13.32 12 14 C14.97 14.33 17.94 14.66 21 15 C21.33 15.99 21.66 16.98 22 18 C23.78844306 18.96755948 23.78844306 18.96755948 26.0078125 19.61328125 C26.83023437 19.89236328 27.65265625 20.17144531 28.5 20.45898438 C30.2253614 21.01998358 31.95189742 21.57738534 33.6796875 22.13085938 C40.75185864 24.54132765 45.81301377 27.71952066 50 34 C50.46300916 39.00049898 50.20344172 42.07320047 47 46 C44.82088964 48.00155322 42.66618603 49.69899457 40 51 C37.0625 50.8125 37.0625 50.8125 35 50 C37.36011867 48.81994066 39.70765502 47.68863179 42.125 46.625 C44.96471683 45.23719987 44.96471683 45.23719987 46.4375 43.3125 C47.53435294 38.80321569 46.45099732 34.35299197 45 30 C42.86673164 28.96026816 42.86673164 28.96026816 40 28 C38.72605621 27.42349122 37.45562216 26.83920398 36.1875 26.25 C33.23448459 24.91176058 30.26926376 23.72192646 27.2109375 22.65234375 C16.11022696 18.75777507 7.07168205 14.51170088 -0.13671875 4.796875 C-1 3 -1 3 0 0 Z " fill="#2C26C5" transform="translate(293,129)"/>
<path d="M0 0 C0.33 0 0.66 0 1 0 C1 13.53 1 27.06 1 41 C-3.40213318 39.23914673 -5.5180095 37.97243091 -9 35 C-13.13222908 31.5304869 -17.32348473 28.19387558 -21.625 24.9375 C-36.46078415 13.61764754 -36.46078415 13.61764754 -38 9 C-35.05220866 10.3150707 -33.16177479 11.68116996 -31 14.0625 C-26.18275984 19.035135 -20.5799006 22.93379584 -15 27 C-13.51866484 28.10125574 -12.03917043 29.20499718 -10.5625 30.3125 C-9.98628906 30.74175781 -9.41007812 31.17101562 -8.81640625 31.61328125 C-6.5137523 33.37122136 -4.26018682 35.18791979 -2 37 C-1.96241577 35.47862427 -1.96241577 35.47862427 -1.92407227 33.92651367 C-1.82990355 30.16368973 -1.72970595 26.40104631 -1.62768555 22.63842773 C-1.58437251 21.00988996 -1.54269482 19.38130784 -1.50268555 17.75268555 C-1.44489497 15.41181065 -1.38122602 13.07115824 -1.31640625 10.73046875 C-1.29133751 9.63813179 -1.29133751 9.63813179 -1.26576233 8.52372742 C-1.17532762 5.43833061 -0.98276007 2.94828022 0 0 Z " fill="#2926B6" transform="translate(132,87)"/>
<path d="M0 0 C2.87856839 2.87856839 3.80593193 6.43166817 5.1875 10.1875 C5.89477098 12.07722087 6.60321064 13.96650454 7.3125 15.85546875 C7.72371094 16.95294434 8.13492188 18.05041992 8.55859375 19.18115234 C11.22627212 26.27012921 13.96320916 33.33292333 16.68618774 40.40078735 C17.6685515 42.95081337 18.65020853 45.50111017 19.6315918 48.05151367 C19.94489944 48.86528976 20.25820709 49.67906586 20.58100891 50.51750183 C21.19534976 52.11488877 21.808563 53.71270989 22.420578 55.31098938 C23.78747114 58.87665934 25.16784111 62.43425499 26.60400391 65.97265625 C27.07112793 67.13667969 27.53825195 68.30070312 28.01953125 69.5 C28.42921143 70.5003125 28.8388916 71.500625 29.26098633 72.53125 C30 75 30 75 29 78 C26.83484273 75.31758129 25.44422152 72.9561281 24.3515625 69.69140625 C24.07078857 68.86769531 23.79001465 68.04398437 23.50073242 67.1953125 C23.21174072 66.32648438 22.92274902 65.45765625 22.625 64.5625 C22.01061192 62.76120734 21.39472307 60.96042588 20.77734375 59.16015625 C20.32657471 57.84168701 20.32657471 57.84168701 19.86669922 56.49658203 C16.80587257 47.49127309 16.80587257 47.49127309 12.87109375 38.859375 C11.63584523 36.22270103 11.8696577 33.86753061 12 31 C11.34 31 10.68 31 10 31 C8.31624018 26.96524575 6.65607274 22.92118852 5 18.875 C4.52304687 17.73289062 4.04609375 16.59078125 3.5546875 15.4140625 C2.87792969 13.75117187 2.87792969 13.75117187 2.1875 12.0546875 C1.76855469 11.03874512 1.34960938 10.02280273 0.91796875 8.97607422 C-0.05390913 5.82522544 -0.17090738 3.27714899 0 0 Z " fill="#302BC4" transform="translate(729,103)"/>
<path d="M0 0 C1.76310382 1.34892641 3.29469173 2.76930432 4.8125 4.38671875 C4.4825 5.04671875 4.1525 5.70671875 3.8125 6.38671875 C3.02939453 5.77183594 3.02939453 5.77183594 2.23046875 5.14453125 C-5.896019 -0.80445628 -13.96030727 -2.46199064 -23.91796875 -1.08203125 C-31.12002401 0.40548447 -39.03871058 4.5520544 -43.765625 10.30859375 C-46.42074484 14.43522578 -48.40956726 18.8148917 -50.1875 23.38671875 C-50.579375 24.27359375 -50.97125 25.16046875 -51.375 26.07421875 C-52.42838731 30.3687978 -52.23768427 34.37583895 -52.0625 38.77734375 C-52.1875 41.38671875 -52.1875 41.38671875 -54.1875 43.38671875 C-54.81463112 29.50273247 -53.31463645 18.53742355 -44.1875 7.38671875 C-32.98304563 -4.57575367 -14.65812847 -8.71635139 0 0 Z " fill="#2926C1" transform="translate(516.1875,121.61328125)"/>
<path d="M0 0 C0.33 0 0.66 0 1 0 C1 33.33 1 66.66 1 101 C6.94 101 12.88 101 19 101 C19 90.11 19 79.22 19 68 C18.34 68 17.68 68 17 68 C17 66.35 17 64.7 17 63 C18.48168945 63.98950195 18.48168945 63.98950195 20 66 C20.26159322 68.79989129 20.34904338 71.37227929 20.29296875 74.16796875 C20.28872391 74.96278152 20.28447906 75.7575943 20.28010559 76.57649231 C20.2633193 79.11384021 20.22566824 81.65039238 20.1875 84.1875 C20.17245305 85.90819165 20.15876466 87.62889576 20.14648438 89.34960938 C20.1159681 93.56695906 20.05724992 97.78258943 20 102 C13.4 102 6.8 102 0 102 C0 68.34 0 34.68 0 0 Z " fill="#3330CA" transform="translate(562,122)"/>
<path d="M0 0 C0.33 0 0.66 0 1 0 C1.33 10.23 1.66 20.46 2 31 C7.40471701 28.68369271 10.03116254 27.4707152 14.1875 23.875 C18.19695957 20.49132624 22.24540972 17.21416559 26.4375 14.0625 C27.40558594 13.33160156 28.37367187 12.60070312 29.37109375 11.84765625 C31.55410819 10.3133831 33.61034486 9.15144575 36 8 C31.22410594 14.08490157 25.82451994 18.47398207 19.625 23.0625 C18.7175 23.74376953 17.81 24.42503906 16.875 25.12695312 C15.09418463 26.46256465 13.30945812 27.79298022 11.52050781 29.11767578 C9.88663807 30.33785553 8.26520043 31.57493391 6.65917969 32.83154297 C5.95438477 33.38084473 5.24958984 33.93014648 4.5234375 34.49609375 C3.60570557 35.22397095 3.60570557 35.22397095 2.66943359 35.96655273 C1 37 1 37 -2 37 C-2 30.73 -2 24.46 -2 18 C-1.67 18 -1.34 18 -1 18 C-0.505 9.09 -0.505 9.09 0 0 Z " fill="#2C2BCC" transform="translate(91,207)"/>
<path d="M0 0 C4.09682315 0.81936463 6.19038218 1.46748119 9.6875 3.375 C16.81874849 7.04674402 24.04039794 9.13482586 32 10 C32 10.33 32 10.66 32 11 C33.98 11.33 35.96 11.66 38 12 C38 12.33 38 12.66 38 13 C28.63264785 13.85157747 18.11781881 11.14872194 9.73828125 6.8359375 C7.72066835 5.71107378 7.72066835 5.71107378 4 6 C3.67 10.95 3.34 15.9 3 21 C4.7325 21.45375 6.465 21.9075 8.25 22.375 C11.73257278 23.2871024 14.8377726 24.26830404 18 26 C11.55796095 27.99595644 6.87894209 24.64875413 1 22 C0.67 14.74 0.34 7.48 0 0 Z " fill="#2E2CC4" transform="translate(290,168)"/>
<path d="M0 0 C2 1 2 1 3.25 4.0625 C6.65665166 12.29243075 12.12746328 17.88003912 20 22 C27.52199709 25.01910294 36.78382069 25.47598613 44.5 22.75 C47.88372492 21.05813754 50.92390686 19.19720939 54 17 C54.66 16.67 55.32 16.34 56 16 C56 16.99 56 17.98 56 19 C54.2421875 20.53515625 54.2421875 20.53515625 51.875 22.0625 C51.10929688 22.56910156 50.34359375 23.07570312 49.5546875 23.59765625 C41.27922381 28.14030375 31.65265839 28.51387288 22.6015625 26.08984375 C12.50703826 22.1359432 6.26484966 16.43635993 1 7 C-0.375 3.4375 -0.375 3.4375 -1 1 C-0.67 0.67 -0.34 0.34 0 0 Z " fill="#2F29BD" transform="translate(465,170)"/>
<path d="M0 0 C0.495 1.485 0.495 1.485 1 3 C-5.1817712 13.3347758 -17.66423273 20.80582473 -27.0625 28.0625 C-28.17020752 28.92137817 -28.17020752 28.92137817 -29.30029297 29.79760742 C-29.99654785 30.32974854 -30.69280273 30.86188965 -31.41015625 31.41015625 C-32.03027588 31.88590088 -32.65039551 32.36164551 -33.28930664 32.85180664 C-35 34 -35 34 -38 35 C-38.04254356 33.00045254 -38.04080783 30.99958364 -38 29 C-37.67 28.67 -37.34 28.34 -37 28 C-36.91241997 26.00035018 -36.89303424 23.9976389 -36.90234375 21.99609375 C-36.90556641 20.78115234 -36.90878906 19.56621094 -36.91210938 18.31445312 C-36.92467773 16.39536133 -36.92467773 16.39536133 -36.9375 14.4375 C-36.94201172 13.15423828 -36.94652344 11.87097656 -36.95117188 10.54882812 C-36.96300455 7.36583978 -36.97948932 4.18294238 -37 1 C-36.67 1 -36.34 1 -36 1 C-36 9.58 -36 18.16 -36 27 C-32.95732844 28.39352658 -32.95732844 28.39352658 -30 26.625 C-25.62641287 23.95480997 -21.76563207 20.65462251 -17.84765625 17.3671875 C-15.15626262 15.12989733 -12.40295016 13.00296778 -9.625 10.875 C-5.53378746 7.63069451 -2.7613947 4.41823151 0 0 Z " fill="#2B25BC" transform="translate(189,93)"/>
<path d="M0 0 C0 0.33 0 0.66 0 1 C-0.56283691 1.02392822 -1.12567383 1.04785645 -1.70556641 1.07250977 C-15.51135325 1.75759415 -28.61377645 2.89002156 -38.75 13.4375 C-43.86415373 20.52828983 -43.25057283 28.64757226 -43 37 C-43.99 37.495 -43.99 37.495 -45 38 C-47.22131334 31.33605999 -46.91837088 23.23564809 -44.02734375 16.80078125 C-39.10032848 8.1644541 -31.19790685 3.16078935 -21.875 0.0625 C-14.6461214 -1.72651744 -7.32142389 -0.76245694 0 0 Z " fill="#2A28C7" transform="translate(336,91)"/>
<path d="M0 0 C0.33 0 0.66 0 1 0 C1 33.66 1 67.32 1 102 C-4.94 102 -10.88 102 -17 102 C-16.01 101.01 -15.02 100.02 -14 99 C-13.01 99 -12.02 99 -11 99 C-11 99.66 -11 100.32 -11 101 C-6.05 100.505 -6.05 100.505 -1 100 C-0.67 67 -0.34 34 0 0 Z " fill="#2D29E5" transform="translate(794,93)"/>
<path d="M0 0 C11.55 0 23.1 0 35 0 C33.65030441 3.37423898 32.68027986 5.73388231 30.7578125 8.62890625 C30.33113281 9.27150391 29.90445313 9.91410156 29.46484375 10.57617188 C29.02269531 11.23166016 28.58054688 11.88714844 28.125 12.5625 C27.69058594 13.22185547 27.25617188 13.88121094 26.80859375 14.56054688 C24.46683921 18.05911409 22.1280635 21.14109545 19 24 C19.70554068 20.33118845 21.27735506 17.29549466 23 14 C23.66 14 24.32 14 25 14 C25.433125 12.88625 25.433125 12.88625 25.875 11.75 C26.82302644 9.43260203 27.84845911 7.22082885 29 5 C29.66 5 30.32 5 31 5 C31 4.34 31 3.68 31 3 C30.13197754 2.98018066 29.26395508 2.96036133 28.36962891 2.93994141 C25.15273733 2.86190128 21.93622955 2.77521119 18.71972656 2.68261719 C17.32691428 2.64430673 15.93400235 2.60945741 14.54101562 2.578125 C12.54013692 2.53252093 10.53957854 2.47348377 8.5390625 2.4140625 C6.73236084 2.36693115 6.73236084 2.36693115 4.88916016 2.31884766 C2 2 2 2 0 0 Z " fill="#2928C4" transform="translate(209,104)"/>
<path d="M0 0 C0.495 0.99 0.495 0.99 1 2 C0.20335937 2.17015625 -0.59328125 2.3403125 -1.4140625 2.515625 C-7.37408504 3.87874451 -12.15067596 5.09688553 -17 9 C-18.423125 10.11375 -18.423125 10.11375 -19.875 11.25 C-20.926875 12.11625 -20.926875 12.11625 -22 13 C-22.66 12.67 -23.32 12.34 -24 12 C-24.33 9.36 -24.66 6.72 -25 4 C-30.61 4 -36.22 4 -42 4 C-42 3.34 -42 2.68 -42 2 C-35.29980211 1.29867087 -28.73742646 0.88955039 -22 1 C-21.67 3.64 -21.34 6.28 -21 9 C-20.48050781 8.59007813 -19.96101562 8.18015625 -19.42578125 7.7578125 C-12.9234346 2.73381823 -8.14037576 0.82783482 0 0 Z " fill="#322FCB" transform="translate(604,117)"/>
<path d="M0 0 C0.99 0.33 1.98 0.66 3 1 C1.6078125 1.8971875 1.6078125 1.8971875 0.1875 2.8125 C-2.8203876 4.71739942 -2.8203876 4.71739942 -4.33984375 6.3984375 C-6.59386785 8.5729078 -9.11780732 10.11894456 -11.75 11.8125 C-15.4036149 14.20548506 -18.85888066 16.59907965 -22.125 19.5 C-25 22 -25 22 -27 22 C-27.33 22.99 -27.66 23.98 -28 25 C-28.45375 25.4125 -28.9075 25.825 -29.375 26.25 C-33.14034361 30.30498543 -34.34631102 35.63975036 -35 41 C-35.66 40.67 -36.32 40.34 -37 40 C-36.75760084 32.36442657 -34.86653174 27.87997052 -30 22 C-27.11322588 19.37385611 -24.02203613 17.15137943 -20.8125 14.9375 C-19.12109109 13.73698291 -17.42968483 12.53646209 -15.73828125 11.3359375 C-14.51939209 10.48273926 -14.51939209 10.48273926 -13.27587891 9.61230469 C-11.29195211 8.20682812 -9.3470836 6.76833136 -7.41796875 5.2890625 C-5.97357422 4.18691406 -5.97357422 4.18691406 -4.5 3.0625 C-3.6853125 2.43472656 -2.870625 1.80695312 -2.03125 1.16015625 C-1.02578125 0.58587891 -1.02578125 0.58587891 0 0 Z " fill="#2D29C5" transform="translate(188,51)"/>
<path d="M0 0 C1.16781006 0.00523682 2.33562012 0.01047363 3.53881836 0.01586914 C4.79887695 0.0190918 6.05893555 0.02231445 7.35717773 0.02563477 C8.6976732 0.03399136 10.03816799 0.04245632 11.37866211 0.05102539 C12.72306153 0.05603879 14.06746271 0.06060197 15.41186523 0.06469727 C18.71334151 0.07653051 22.01473014 0.09301568 25.31616211 0.11352539 C25.31616211 0.77352539 25.31616211 1.43352539 25.31616211 2.11352539 C21.06882379 3.0949492 16.84291678 3.42272918 12.50366211 3.67602539 C11.81079102 3.71920898 11.11791992 3.76239258 10.40405273 3.80688477 C8.70827524 3.91213992 7.01224159 4.01325403 5.31616211 4.11352539 C4.98616211 5.43352539 4.65616211 6.75352539 4.31616211 8.11352539 C4.97616211 8.11352539 5.63616211 8.11352539 6.31616211 8.11352539 C7.70916393 10.0724342 9.03861657 12.07743719 10.31616211 14.11352539 C11.30616211 15.59852539 11.30616211 15.59852539 12.31616211 17.11352539 C11.32616211 17.11352539 10.33616211 17.11352539 9.31616211 17.11352539 C9.31616211 16.45352539 9.31616211 15.79352539 9.31616211 15.11352539 C8.65616211 15.11352539 7.99616211 15.11352539 7.31616211 15.11352539 C3.02742992 10.95155375 -0.5250441 6.16759546 -3.68383789 1.11352539 C-2.68383789 0.11352539 -2.68383789 0.11352539 0 0 Z " fill="#2F2FE1" transform="translate(171.683837890625,151.886474609375)"/>
<path d="M0 0 C2.68374887 2.29021839 4.67256097 4.49390244 6 7.8125 C5.6875 10.625 5.6875 10.625 5 12.8125 C4.67 12.8125 4.34 12.8125 4 12.8125 C3.773125 11.925625 3.54625 11.03875 3.3125 10.125 C1.62186475 5.85815865 -0.84987609 2.88756196 -5 0.8125 C-10.95293853 0.25575035 -15.97348091 0.27108882 -21 3.8125 C-23.14734568 6.0390105 -25.10943036 8.36548611 -27 10.8125 C-27.66 10.4825 -28.32 10.1525 -29 9.8125 C-27.57369692 6.48200878 -25.84985604 4.49511063 -23.125 2.125 C-22.44695312 1.52300781 -21.76890625 0.92101562 -21.0703125 0.30078125 C-15.40925492 -3.76877146 -5.73372829 -3.89991327 0 0 Z " fill="#2C26C8" transform="translate(422,136.1875)"/>
<path d="M0 0 C-3.15432767 2.10288511 -4.4711266 2.28671901 -8.125 2.6875 C-17.00221726 4.17877856 -22.75303555 9.95802139 -28 17 C-29.80144769 19.56545452 -31.5906901 22.13696663 -33.3515625 24.73046875 C-34.78262145 26.70071815 -36.22226668 28.34616931 -38 30 C-38 22.21411967 -29.20102805 13.46000286 -24.07421875 7.91015625 C-16.84876547 1.25620775 -9.60720922 -0.19214418 0 0 Z " fill="#302CC0" transform="translate(83,152)"/>
<path d="M0 0 C0.33 0 0.66 0 1 0 C0.53538552 7.58250836 -2.0697495 13.99084719 -4.875 21 C-5.76837746 23.270775 -6.66161008 25.54160698 -7.5546875 27.8125 C-7.97588867 28.8746875 -8.39708984 29.936875 -8.83105469 31.03125 C-10.26461824 34.67204633 -11.64191459 38.33047122 -13 42 C-13.66 42 -14.32 42 -15 42 C-15.495 40.515 -15.495 40.515 -16 39 C-15.34 39 -14.68 39 -14 39 C-13.84942139 38.45359863 -13.69884277 37.90719727 -13.54370117 37.34423828 C-11.24994731 29.34905366 -8.29447258 21.63061447 -5.3125 13.875 C-4.79589779 12.52356214 -4.27961945 11.17200042 -3.76367188 9.8203125 C-2.51283904 6.54544107 -1.257653 3.2722593 0 0 Z " fill="#2A27C0" transform="translate(680,150)"/>
<path d="M0 0 C0.61931396 0.0721875 1.23862793 0.144375 1.87670898 0.21875 C9.95522972 1.06594671 17.94668853 1.08160695 26.0625 1 C28.65751136 0.97459607 31.25257003 0.9535273 33.84765625 0.9375 C34.98211182 0.92589844 36.11656738 0.91429687 37.28540039 0.90234375 C40 1 40 1 42 2 C42 2.66 42 3.32 42 4 C37.46510373 4.04986353 32.9303711 4.08593637 28.39526367 4.10986328 C26.85617285 4.11985006 25.31710065 4.13344419 23.77807617 4.15087891 C15.62298961 4.24087337 7.91023636 4.28577933 0 2 C0 1.34 0 0.68 0 0 Z " fill="#2B2FC7" transform="translate(201,184)"/>
<path d="M0 0 C3.51725445 2.01074901 6.59086838 4.20454777 9.6875 6.8125 C13.27369319 9.80017668 16.89672806 12.7030057 20.61328125 15.52734375 C21.41870361 16.14182373 22.22412598 16.75630371 23.05395508 17.3894043 C24.66192354 18.61251316 26.27492446 19.82903924 27.89331055 21.03833008 C31.78976967 24.01248568 34.87652148 26.44479608 37 31 C33.64488745 29.52739404 31.30035297 27.6126089 28.625 25.125 C26.20353886 22.87466685 23.87844569 20.9191837 21.12109375 19.0859375 C17.66399916 16.77543874 14.57797087 14.21508318 11.4375 11.5 C10.33257751 10.55144666 9.22711671 9.60351996 8.12109375 8.65625 C7.59757324 8.20507812 7.07405273 7.75390625 6.53466797 7.2890625 C5.0909984 6.07643518 3.59549197 4.92629803 2.09765625 3.78125 C1.40542969 3.1934375 0.71320313 2.605625 0 2 C0 1.34 0 0.68 0 0 Z " fill="#2D27BE" transform="translate(151,164)"/>
<path d="M0 0 C0.99 0.33 1.98 0.66 3 1 C2.67 14.2 2.34 27.4 2 41 C1.34 40.67 0.68 40.34 0 40 C0 26.66666667 0 13.33333333 0 0 Z " fill="#322DB3" transform="translate(131,164)"/>
<path d="M0 0 C0.99 0.33 1.98 0.66 3 1 C2.14535156 1.91523438 1.29070312 2.83046875 0.41015625 3.7734375 C-0.70584921 4.97384674 -1.82172808 6.17437368 -2.9375 7.375 C-3.50146484 7.97828125 -4.06542969 8.5815625 -4.64648438 9.203125 C-5.18466797 9.78320312 -5.72285156 10.36328125 -6.27734375 10.9609375 C-6.77484131 11.49509277 -7.27233887 12.02924805 -7.78491211 12.57958984 C-9.10293508 14.0045475 -9.10293508 14.0045475 -10 16 C-10.66 16 -11.32 16 -12 16 C-12.24234375 16.56460938 -12.4846875 17.12921875 -12.734375 17.7109375 C-14.24932356 20.45093706 -16.05562392 22.3933046 -18.25 24.625 C-19.37148437 25.78902344 -19.37148437 25.78902344 -20.515625 26.9765625 C-23.25734649 29.20959981 -25.6079091 30.08825302 -29 31 C-29 30.34 -29 29.68 -29 29 C-27.1015625 27.59765625 -27.1015625 27.59765625 -24.625 26.0625 C-21.51789754 24.13412371 -20.06851285 23.10276927 -18 20 C-17.34 20 -16.68 20 -16 20 C-15.71125 19.4225 -15.4225 18.845 -15.125 18.25 C-14.75375 17.5075 -14.3825 16.765 -14 16 C-13.690625 15.278125 -13.38125 14.55625 -13.0625 13.8125 C-12 12 -12 12 -9 11 C-7.37468352 9.20064272 -5.81921756 7.33727432 -4.3125 5.4375 C-3.10013672 3.91962891 -3.10013672 3.91962891 -1.86328125 2.37109375 C-1.24839844 1.58863281 -0.63351563 0.80617187 0 0 Z " fill="#2927BD" transform="translate(113,154)"/>
<path d="M0 0 C2.70839822 1.61052965 4.84602027 3.39216535 7 5.6875 C6.67 6.3475 6.34 7.0075 6 7.6875 C5.21689453 7.07261719 5.21689453 7.07261719 4.41796875 6.4453125 C-3.73457031 0.47725414 -11.73159209 -1.09165245 -21.7109375 0.19140625 C-23.9443937 0.67544881 -25.80505715 1.35680298 -27.875 2.3125 C-31.19593732 3.77371242 -31.75796418 3.74010903 -35 2.6875 C-25.38820296 -4.23101715 -10.68464347 -5.16948192 0 0 Z " fill="#312AC6" transform="translate(514,120.3125)"/>
<path d="M0 0 C0.33 0 0.66 0 1 0 C1.02477487 5.03539677 1.04289549 10.07075781 1.05493164 15.10620117 C1.05995099 16.81812152 1.06676785 18.53003761 1.07543945 20.24194336 C1.08761021 22.70687922 1.09325238 25.17175825 1.09765625 27.63671875 C1.10281754 28.39836838 1.10797882 29.16001801 1.11329651 29.94474792 C1.11369638 33.75849825 0.92590961 37.29315771 0 41 C-2 39 -2 39 -2.15112305 35.30053711 C-2.11552285 33.70919239 -2.06824714 32.11808255 -2.01171875 30.52734375 C-1.98906448 29.68909561 -1.96641022 28.85084747 -1.94306946 27.98719788 C-1.89307868 26.21422243 -1.83810854 24.44138149 -1.77856445 22.66870117 C-1.68776211 19.94536127 -1.61310493 17.22193987 -1.54101562 14.49804688 C-1.49053398 12.77861766 -1.439133 11.05921514 -1.38671875 9.33984375 C-1.36373215 8.52007553 -1.34074554 7.70030731 -1.31706238 6.85569763 C-1.11616673 1.11616673 -1.11616673 1.11616673 0 0 Z " fill="#2726C5" transform="translate(193,49)"/>
<path d="M0 0 C1.65 0.99 3.3 1.98 5 3 C4.01 4.485 4.01 4.485 3 6 C2.6633947 8.97228429 2.6633947 8.97228429 2.65625 12.34765625 C2.62660156 13.59224609 2.59695312 14.83683594 2.56640625 16.11914062 C2.52206965 18.75195202 2.47779902 21.38476452 2.43359375 24.01757812 C2.40394531 25.26087891 2.37429687 26.50417969 2.34375 27.78515625 C2.32505859 28.92863525 2.30636719 30.07211426 2.28710938 31.25024414 C2 34 2 34 0 36 C0 24.12 0 12.24 0 0 Z " fill="#3130E0" transform="translate(151,166)"/>
<path d="M0 0 C0.72822464 0.02361099 1.45644928 0.04722198 2.20674133 0.07154846 C4.52995965 0.14804975 6.85283318 0.23213185 9.17578125 0.31640625 C10.75193632 0.36964052 12.32810816 0.42238083 13.90429688 0.47460938 C17.76584285 0.60364647 21.62709691 0.7394825 25.48828125 0.87890625 C23.83828125 2.52890625 22.18828125 4.17890625 20.48828125 5.87890625 C19.49828125 4.88890625 18.50828125 3.89890625 17.48828125 2.87890625 C17.48828125 3.53890625 17.48828125 4.19890625 17.48828125 4.87890625 C16.82828125 4.54890625 16.16828125 4.21890625 15.48828125 3.87890625 C15.48828125 3.54890625 15.48828125 3.21890625 15.48828125 2.87890625 C6.90828125 2.87890625 -1.67171875 2.87890625 -10.51171875 2.87890625 C-10.51171875 2.21890625 -10.51171875 1.55890625 -10.51171875 0.87890625 C-6.9098856 -0.3217048 -3.73483287 -0.14294801 0 0 Z " fill="#3130E2" transform="translate(90.51171875,152.12109375)"/>
<path d="M0 0 C0.66 0 1.32 0 2 0 C1.39762678 4.70424798 0.07662023 8.63117637 -1.75 13 C-4.74126549 20.25577836 -7.41913098 27.5885664 -10 35 C-10.66 34.67 -11.32 34.34 -12 34 C-11.38927038 30.5647412 -10.51702446 27.45104061 -9.2578125 24.19921875 C-8.91363281 23.30396484 -8.56945312 22.40871094 -8.21484375 21.48632812 C-7.85519531 20.56271484 -7.49554687 19.63910156 -7.125 18.6875 C-6.41911064 16.85813472 -5.71337916 15.02870851 -5.0078125 13.19921875 C-4.66911133 12.32442871 -4.33041016 11.44963867 -3.98144531 10.54833984 C-2.63062349 7.04090747 -1.31292465 3.52177588 0 0 Z " fill="#2C28C5" transform="translate(711,120)"/>
<path d="M0 0 C25.46847815 15.32049653 25.46847815 15.32049653 28.875 27 C28.91625 27.66 28.9575 28.32 29 29 C28.34 29.33 27.68 29.66 27 30 C26.76925781 29.40832031 26.53851563 28.81664063 26.30078125 28.20703125 C25.81158203 27.02173828 25.81158203 27.02173828 25.3125 25.8125 C24.99925781 25.03519531 24.68601562 24.25789063 24.36328125 23.45703125 C21.47987622 18.26029267 16.78414646 14.95160256 12.0625 11.5 C3.19441194 4.92821094 3.19441194 4.92821094 0 2 C0 1.34 0 0.68 0 0 Z " fill="#2B27BD" transform="translate(103,57)"/>
<path d="M0 0 C0.66 0.33 1.32 0.66 2 1 C-3.07945721 6.44435477 -8.58178587 10.85810363 -14.625 15.1875 C-16.28448909 16.38844605 -17.94336143 17.59024489 -19.6015625 18.79296875 C-20.36887695 19.34645996 -21.13619141 19.89995117 -21.92675781 20.47021484 C-23.64398391 21.73730607 -25.31010837 23.07332097 -26.9609375 24.42578125 C-29 26 -29 26 -31 26 C-31 25.34 -31 24.68 -31 24 C-28.64061694 22.0858407 -26.26937152 20.28160731 -23.8125 18.5 C-22.34715818 17.41994626 -20.88232214 16.339206 -19.41796875 15.2578125 C-18.67853027 14.71415039 -17.9390918 14.17048828 -17.17724609 13.61035156 C-13.96523242 11.23465722 -10.79110829 8.81137837 -7.625 6.375 C-6.58601563 5.57835937 -5.54703125 4.78171875 -4.4765625 3.9609375 C-2.00270062 2.07964769 -2.00270062 2.07964769 0 0 Z " fill="#2A26BA" transform="translate(125,215)"/>
<path d="M0 0 C9.57 0 19.14 0 29 0 C29.33 0.66 29.66 1.32 30 2 C26.99594599 2.86915167 24.3144404 3.12855313 21.19140625 3.1328125 C20.27939453 3.13410156 19.36738281 3.13539063 18.42773438 3.13671875 C17.48220703 3.13285156 16.53667969 3.12898437 15.5625 3.125 C14.62083984 3.12886719 13.67917969 3.13273438 12.70898438 3.13671875 C11.79568359 3.13542969 10.88238281 3.13414062 9.94140625 3.1328125 C9.11326416 3.13168457 8.28512207 3.13055664 7.43188477 3.12939453 C4.87366544 2.99327805 2.49684349 2.56029446 0 2 C0 1.34 0 0.68 0 0 Z " fill="#2B29C1" transform="translate(309,194)"/>
<path d="M0 0 C0.66 0.33 1.32 0.66 2 1 C0.65673252 2.28234832 -0.70026008 3.55032445 -2.0625 4.8125 C-2.81660156 5.52019531 -3.57070312 6.22789062 -4.34765625 6.95703125 C-12.03020394 12.87451643 -19.01057767 12.37308807 -28.4375 12.1875 C-29.74138672 12.17396484 -31.04527344 12.16042969 -32.38867188 12.14648438 C-35.59287622 12.11127334 -38.79622105 12.06202094 -42 12 C-42 11.67 -42 11.34 -42 11 C-41.27522461 11.00112793 -40.55044922 11.00225586 -39.80371094 11.00341797 C-19.12615718 11.52405729 -19.12615718 11.52405729 -1.7109375 1.80078125 C-1.14632812 1.20652344 -0.58171875 0.61226562 0 0 Z " fill="#3237BD" transform="translate(226,128)"/>
<path d="M0 0 C0 0.66 0 1.32 0 2 C-1.65 2.66 -3.3 3.32 -5 4 C-5 4.33 -5 4.66 -5 5 C-6.11375 5.0825 -7.2275 5.165 -8.375 5.25 C-9.57125 5.4975 -10.7675 5.745 -12 6 C-13.14209817 7.78228936 -13.14209817 7.78228936 -14 10 C-15.88158426 11.98611672 -17.74569985 13.38978561 -20 15 C-20.99 14.67 -21.98 14.34 -23 14 C-16.70842339 7.02455636 -9.93382225 0 0 0 Z " fill="#322DCA" transform="translate(208,105)"/>
<path d="M0 0 C0.66 0.66 1.32 1.32 2 2 C1.34773438 2.49628906 0.69546875 2.99257812 0.0234375 3.50390625 C-8.56038869 10.17599534 -14.23251668 15.29420924 -17 26 C-17.66 25.67 -18.32 25.34 -19 25 C-17.88452889 15.60011543 -12.18608619 9.71174482 -5.0625 3.875 C-3.38516749 2.57015722 -1.70118852 1.27358417 0 0 Z " fill="#2C27C2" transform="translate(110,180)"/>
<path d="M0 0 C0.33 0 0.66 0 1 0 C1 8.58 1 17.16 1 26 C2.65 26.33 4.3 26.66 6 27 C5.61402985 29.79828356 5.19863427 30.8205884 3.0625 32.75 C1 34 1 34 -1 34 C-1.04254356 32.00045254 -1.04080783 29.99958364 -1 28 C-0.67 27.67 -0.34 27.34 0 27 C0.08758003 25.00035018 0.10696576 22.9976389 0.09765625 20.99609375 C0.09443359 19.78115234 0.09121094 18.56621094 0.08789062 17.31445312 C0.07532227 15.39536133 0.07532227 15.39536133 0.0625 13.4375 C0.05798828 12.15423828 0.05347656 10.87097656 0.04882812 9.54882812 C0.03699545 6.36583978 0.02051068 3.18294238 0 0 Z " fill="#2D2AD6" transform="translate(152,94)"/>
<path d="M0 0 C3 1 3 1 4.875 2.92578125 C11.33229491 9.22876581 21.44219718 9.70129833 30 10 C30 10.33 30 10.66 30 11 C11.85026228 11.74248927 11.85026228 11.74248927 5 7 C4.01 6.319375 3.02 5.63875 2 4.9375 C1.34 4.298125 0.68 3.65875 0 3 C0 2.01 0 1.02 0 0 Z " fill="#251FC9" transform="translate(582,185)"/>
<path d="M0 0 C0.33 0 0.66 0 1 0 C1.33 10.23 1.66 20.46 2 31 C2.99 31.33 3.98 31.66 5 32 C5 33.32 5 34.64 5 36 C3.125 35.5 3.125 35.5 1 34 C-1.54800584 26.83803763 -1.03735401 20.00484305 -0.625 12.5 C-0.56828125 11.29601562 -0.5115625 10.09203125 -0.453125 8.8515625 C-0.31259151 5.90035929 -0.16127548 2.95013017 0 0 Z " fill="#2B28D4" transform="translate(91,60)"/>
<path d="M0 0 C4.67699697 3.74159758 8.81699601 7.79667748 12.875 12.1875 C13.36331299 12.71053711 13.85162598 13.23357422 14.35473633 13.77246094 C16.54774343 16.17577753 17.95884171 17.87652513 19 21 C18.01 21 17.02 21 16 21 C14.23828125 19.12890625 14.23828125 19.12890625 12.3125 16.5625 C8.89337021 12.10304129 5.29132834 7.92912283 1.46875 3.8125 C0 2 0 2 0 0 Z " fill="#2A24BD" transform="translate(98,119)"/>
<path d="M0 0 C0.66 0.33 1.32 0.66 2 1 C0.8803014 2.00593243 -0.2459412 3.0045849 -1.375 4 C-2.31472656 4.8353125 -2.31472656 4.8353125 -3.2734375 5.6875 C-5 7 -5 7 -7 7 C-7 7.99 -7 8.98 -7 10 C-7.99 10.495 -7.99 10.495 -9 11 C-10.13350534 13.01669827 -10.13350534 13.01669827 -11 15 C-13 14 -13 14 -16 12 C-10.72 8.04 -5.44 4.08 0 0 Z " fill="#362FD4" transform="translate(128,167)"/>
<path d="M0 0 C2 1 2 1 3.25 4.625 C5.26383816 10.2800203 8.44822075 14.72411037 13.875 17.4375 C14.57625 17.623125 15.2775 17.80875 16 18 C16 18.33 16 18.66 16 19 C13.03362728 19.25839484 11.43455518 19.26901035 8.8671875 17.6796875 C3.92338549 13.20118451 0.20110528 9.619895 -0.1875 2.625 C-0.125625 1.75875 -0.06375 0.8925 0 0 Z " fill="#2D2AC1" transform="translate(481,160)"/>
<path d="M0 0 C10.71460306 -0.14036598 21.3120232 0.26740918 32 1 C32 1.33 32 1.66 32 2 C27.92566396 2.21724212 23.85090319 2.41405801 19.7746582 2.59204102 C18.38832281 2.65544693 17.00223022 2.72441716 15.61645508 2.79907227 C13.62393806 2.90544455 11.63030018 2.99012226 9.63671875 3.07421875 C8.43748779 3.13182373 7.23825684 3.18942871 6.00268555 3.2487793 C3 3 3 3 1.08520508 1.49536133 C0.7270874 1.00189209 0.36896973 0.50842285 0 0 Z " fill="#2E2EDD" transform="translate(178,137)"/>
<path d="M0 0 C5.875 3.625 5.875 3.625 7 7 C7.97784735 8.02167244 8.98034977 9.02004418 10 10 C10.92044862 11.21084367 11.81685748 12.44036342 12.6875 13.6875 C13.12449219 14.31011719 13.56148437 14.93273437 14.01171875 15.57421875 C14.33785156 16.04472656 14.66398438 16.51523438 15 17 C14.01 17 13.02 17 12 17 C12 16.34 12 15.68 12 15 C11.34 15 10.68 15 10 15 C5.71126781 10.83802836 2.15879379 6.05407007 -1 1 C-0.67 0.67 -0.34 0.34 0 0 Z " fill="#2A27C2" transform="translate(169,152)"/>
<path d="M0 0 C6.93 0 13.86 0 21 0 C25 9 25 9 25 12 C24.01 11.67 23.02 11.34 22 11 C20.515 6.545 20.515 6.545 19 2 C12.73 1.67 6.46 1.34 0 1 C0 0.67 0 0.34 0 0 Z " fill="#312DB4" transform="translate(704,91)"/>
<path d="M0 0 C4.01560965 1.00390241 5.95119372 2.17520598 9.25 4.5625 C10.14203125 5.20316406 11.0340625 5.84382813 11.953125 6.50390625 C12.96632813 7.24447266 12.96632813 7.24447266 14 8 C13.34 8.66 12.68 9.32 12 10 C8.7 7.69 5.4 5.38 2 3 C1.67 8.61 1.34 14.22 1 20 C0.67 20 0.34 20 0 20 C0 13.4 0 6.8 0 0 Z " fill="#2E2BAF" transform="translate(89,48)"/>
<path d="M0 0 C0.33 0.99 0.66 1.98 1 3 C-0.43457328 3.9834496 -1.87277406 4.96160921 -3.3125 5.9375 C-4.11300781 6.48277344 -4.91351562 7.02804688 -5.73828125 7.58984375 C-10.12846131 10.32707173 -14.18957432 10.11924501 -19.1875 10.0625 C-19.93708984 10.05798828 -20.68667969 10.05347656 -21.45898438 10.04882812 C-23.30602383 10.03706354 -25.15302213 10.01912865 -27 10 C-27 9.67 -27 9.34 -27 9 C-25.94941406 8.91363281 -24.89882813 8.82726562 -23.81640625 8.73828125 C-14.66420779 7.86643572 -6.79694443 6.79694443 0 0 Z " fill="#2B25C7" transform="translate(520,186)"/>
<path d="M0 0 C3.03767912 1.34714466 4.99668202 2.82166703 7.25 5.25 C10.85035474 8.97531282 14.78143491 12.00865384 19 15 C18.01 15.33 17.02 15.66 16 16 C13.67890764 14.36686027 11.62186619 12.73810202 9.5 10.875 C8.91863281 10.38773438 8.33726563 9.90046875 7.73828125 9.3984375 C4.43288983 6.55443939 2.01915787 3.93735785 0 0 Z " fill="#2E27C1" transform="translate(94,96)"/>
<path d="M0 0 C0.33 0.99 0.66 1.98 1 3 C11.56 3 22.12 3 33 3 C33 3.33 33 3.66 33 4 C21.45 4 9.9 4 -2 4 C-1.34 2.68 -0.68 1.36 0 0 Z " fill="#3739C5" transform="translate(42,184)"/>
<path d="M0 0 C3.84066037 1.56471348 6.13033315 4.06034127 9 7 C10.65893182 8.34294481 12.32476605 9.67744688 14 11 C15.0173873 11.98230498 16.02596117 12.97469597 17 14 C12.70268554 13.48371487 10.54903467 12.15135128 7.375 9.25 C6.61960938 8.57453125 5.86421875 7.8990625 5.0859375 7.203125 C2.95436743 4.9518038 1.48787702 2.71040017 0 0 Z " fill="#2C28C1" transform="translate(183,170)"/>
<path d="M0 0 C0.33 0 0.66 0 1 0 C1 1.98 1 3.96 1 6 C1.74765625 6.19335938 2.4953125 6.38671875 3.265625 6.5859375 C4.25046875 6.84632813 5.2353125 7.10671875 6.25 7.375 C7.22453125 7.63023437 8.1990625 7.88546875 9.203125 8.1484375 C11.65837303 8.89598509 13.75617405 9.77123817 16 11 C11.88591487 12.16911052 9.64876812 11.81757897 5.75 10.125 C4.44289063 9.57199219 4.44289063 9.57199219 3.109375 9.0078125 C1 8 1 8 0 7 C-0.04092937 4.66702567 -0.04241723 2.33294775 0 0 Z " fill="#2725D0" transform="translate(292,183)"/>
<path d="M0 0 C0.33 0 0.66 0 1 0 C2.58919293 9.85729131 2.58919293 9.85729131 0 14 C-0.99 14.33 -1.98 14.66 -3 15 C-2.69257097 12.68682039 -2.37892298 10.37446648 -2.0625 8.0625 C-1.88847656 6.77472656 -1.71445312 5.48695313 -1.53515625 4.16015625 C-1 1 -1 1 0 0 Z " fill="#332DD7" transform="translate(624,152)"/>
<path d="M0 0 C0.66 0.33 1.32 0.66 2 1 C-7.04100228 9.81548975 -7.04100228 9.81548975 -14 11 C-14 10.34 -14 9.68 -14 9 C-13.32453125 8.68546875 -12.6490625 8.3709375 -11.953125 8.046875 C-5.32416431 4.93666114 -5.32416431 4.93666114 0 0 Z " fill="#2925BA" transform="translate(226,128)"/>
<path d="M0 0 C0.66 0 1.32 0 2 0 C2.64910154 1.58199631 3.29414694 3.16565724 3.9375 4.75 C4.29714844 5.63171875 4.65679688 6.5134375 5.02734375 7.421875 C5.85356576 9.61186104 6.49369943 11.71898271 7 14 C6.01 14.495 6.01 14.495 5 15 C4.16260219 12.8765984 3.33019717 10.7512272 2.5 8.625 C1.80390625 6.84996094 1.80390625 6.84996094 1.09375 5.0390625 C0 2 0 2 0 0 Z " fill="#241FC9" transform="translate(718,127)"/>
<path d="M0 0 C0.66 0 1.32 0 2 0 C2.86580287 1.93232821 3.71729941 3.87107194 4.5625 5.8125 C5.27599609 7.43091797 5.27599609 7.43091797 6.00390625 9.08203125 C7 12 7 12 6 15 C6 14.34 6 13.68 6 13 C5.34 13 4.68 13 4 13 C3.32942113 11.2097939 2.6636531 9.41778511 2 7.625 C1.62875 6.62726563 1.2575 5.62953125 0.875 4.6015625 C0 2 0 2 0 0 Z " fill="#2C26C8" transform="translate(724,142)"/>
<path d="M0 0 C0.33 0.66 0.66 1.32 1 2 C-0.26457031 2.30744141 -0.26457031 2.30744141 -1.5546875 2.62109375 C-2.65039062 2.89050781 -3.74609375 3.15992187 -4.875 3.4375 C-6.51082031 3.83775391 -6.51082031 3.83775391 -8.1796875 4.24609375 C-10.92484721 4.8786478 -10.92484721 4.8786478 -13 6 C-13.66 5.34 -14.32 4.68 -15 4 C-9.87674471 1.54510684 -5.66104589 0.49658297 0 0 Z " fill="#2F28C7" transform="translate(604,117)"/>
<path d="M0 0 C0.66 0.33 1.32 0.66 2 1 C1.67 3.31 1.34 5.62 1 8 C-1.97 7.505 -1.97 7.505 -5 7 C-4.67 5.35 -4.34 3.7 -4 2 C-3.01 2 -2.02 2 -1 2 C-0.67 1.34 -0.34 0.68 0 0 Z " fill="#3732DE" transform="translate(190,87)"/>
<path d="M0 0 C5.28137429 0.51525603 8.57221156 2.25477117 13 5 C13 5.66 13 6.32 13 7 C12.34 6.731875 11.68 6.46375 11 6.1875 C7.35060933 4.74294953 3.67754567 3.37128822 0 2 C0 1.34 0 0.68 0 0 Z " fill="#2A26CA" transform="translate(343,110)"/>
<path d="M0 0 C2.74554724 2.37115444 3.95117186 4.53079925 5 8 C5.125 11.3125 5.125 11.3125 5 14 C3 13 3 13 2.1484375 10.8203125 C1.89320313 9.93085938 1.63796875 9.04140625 1.375 8.125 C1.11460937 7.24070313 0.85421875 6.35640625 0.5859375 5.4453125 C0 3 0 3 0 0 Z " fill="#2B28C2" transform="translate(188,195)"/>
<path d="M0 0 C3.38721604 1.12907201 4.51444325 2.51444325 7 5 C9.13309192 6.23512079 9.13309192 6.23512079 11 7 C11 7.66 11 8.32 11 9 C7.93674247 8.39005934 5.79949366 7.42271989 3.25 5.625 C2.63640625 5.20476562 2.0228125 4.78453125 1.390625 4.3515625 C0.93171875 3.90554687 0.4728125 3.45953125 0 3 C0 2.01 0 1.02 0 0 Z " fill="#2B26CF" transform="translate(582,185)"/>
<path d="M0 0 C0.89203125 0.00902344 1.7840625 0.01804688 2.703125 0.02734375 C3.37859375 0.03894531 4.0540625 0.05054688 4.75 0.0625 C4.75 0.7225 4.75 1.3825 4.75 2.0625 C2.10541621 3.38479189 0.07238699 3.15927194 -2.875 3.125 C-3.87789063 3.11597656 -4.88078125 3.10695312 -5.9140625 3.09765625 C-6.68492188 3.08605469 -7.45578125 3.07445312 -8.25 3.0625 C-8.58 2.4025 -8.91 1.7425 -9.25 1.0625 C-6.09493858 0.12630187 -3.28413498 -0.0432123 0 0 Z " fill="#2D2DD6" transform="translate(78.25,183.9375)"/>
<path d="M0 0 C1.958964 0.30852185 3.91715713 0.6219418 5.875 0.9375 C6.96554687 1.11152344 8.05609375 1.28554687 9.1796875 1.46484375 C12 2 12 2 14 3 C14 3.66 14 4.32 14 5 C9.38 4.01 4.76 3.02 0 2 C0 1.34 0 0.68 0 0 Z " fill="#2F29D0" transform="translate(607,117)"/>
<path d="M0 0 C0.33 1.32 0.66 2.64 1 4 C-6.0547046 10.03938731 -6.0547046 10.03938731 -10 9.875 C-10.99 9.441875 -10.99 9.441875 -12 9 C-9.63988133 7.81994066 -7.29234498 6.68863179 -4.875 5.625 C-1.91626889 3.95267372 -1.083174 3.14120461 0 0 Z " fill="#2D2BB9" transform="translate(340,170)"/>
<path d="M0 0 C0.66 0.33 1.32 0.66 2 1 C1.67 1.33 1.34 1.66 1 2 C0.76572222 4.01594582 0.58663876 6.038474 0.4375 8.0625 C0.35371094 9.16722656 0.26992187 10.27195312 0.18359375 11.41015625 C0.12300781 12.26480469 0.06242188 13.11945312 0 14 C-0.33 14 -0.66 14 -1 14 C-1.433125 12.2984375 -1.433125 12.2984375 -1.875 10.5625 C-2.24625 9.386875 -2.6175 8.21125 -3 7 C-3.66 6.67 -4.32 6.34 -5 6 C-4.54625 5.566875 -4.0925 5.13375 -3.625 4.6875 C-1.79975666 2.89201658 -1.79975666 2.89201658 0 0 Z M-7 7 C-5 8 -5 8 -5 8 Z " fill="#3531E5" transform="translate(192,48)"/>
<path d="M0 0 C1.81325551 0.11351517 3.62563357 0.24112961 5.4375 0.375 C6.95150391 0.47941406 6.95150391 0.47941406 8.49609375 0.5859375 C9.73552734 0.79089844 9.73552734 0.79089844 11 1 C11.33 1.66 11.66 2.32 12 3 C10.37509046 3.02698189 8.75005367 3.04638757 7.125 3.0625 C5.76761719 3.07990234 5.76761719 3.07990234 4.3828125 3.09765625 C2 3 2 3 0 2 C0 1.34 0 0.68 0 0 Z " fill="#2D2AD4" transform="translate(201,184)"/>
<path d="M0 0 C0.66 0 1.32 0 2 0 C2.6875 2.3125 2.6875 2.3125 3 5 C1.8125 6.875 1.8125 6.875 0 8 C-2.1875 7.6875 -2.1875 7.6875 -4 7 C-3.01 6.67 -2.02 6.34 -1 6 C-1.020625 5.195625 -1.04125 4.39125 -1.0625 3.5625 C-1 1 -1 1 0 0 Z " fill="#302AE4" transform="translate(524,121)"/>
<path d="M0 0 C4.29 0 8.58 0 13 0 C13 0.33 13 0.66 13 1 C8.545 1.495 8.545 1.495 4 2 C3.67 3.32 3.34 4.64 3 6 C2.34 6 1.68 6 1 6 C0.67 4.02 0.34 2.04 0 0 Z " fill="#322FE5" transform="translate(44,106)"/>
<path d="M0 0 C1.50539661 0.94983358 3.00420347 1.91011891 4.5 2.875 C5.75296875 3.67550781 5.75296875 3.67550781 7.03125 4.4921875 C7.6809375 4.98976562 8.330625 5.48734375 9 6 C9 6.66 9 7.32 9 8 C4.62140745 7.49477778 2.18348776 4.82172778 -1 2 C-0.67 1.34 -0.34 0.68 0 0 Z " fill="#2C25C5" transform="translate(184,235)"/>
<path d="M0 0 C0.66 0.33 1.32 0.66 2 1 C-1.3 3.64 -4.6 6.28 -8 9 C-8 8.01 -8 7.02 -8 6 C-6.25 4.39453125 -6.25 4.39453125 -4 2.8125 C-3.2575 2.28269531 -2.515 1.75289062 -1.75 1.20703125 C-1.1725 0.80871094 -0.595 0.41039062 0 0 Z " fill="#2926C1" transform="translate(128,167)"/>
<path d="M0 0 C0.33 0 0.66 0 1 0 C1.34731345 4.86238823 0.52309739 7.82718509 -2 12 C-2.99 12.495 -2.99 12.495 -4 13 C-3.52140759 11.39566191 -3.04210442 9.79153584 -2.5625 8.1875 C-2.29566406 7.29417969 -2.02882813 6.40085938 -1.75390625 5.48046875 C-1.19612127 3.64526945 -0.60655425 1.81966274 0 0 Z " fill="#3230B8" transform="translate(673,168)"/>
<path d="M0 0 C0.33 0.99 0.66 1.98 1 3 C-3.29 3 -7.58 3 -12 3 C-12 2.67 -12 2.34 -12 2 C-10.37548581 1.66430703 -8.75037083 1.3315204 -7.125 1 C-6.22007812 0.814375 -5.31515625 0.62875 -4.3828125 0.4375 C-2 0 -2 0 0 0 Z " fill="#3331E3" transform="translate(540,192)"/>
<path d="M0 0 C0.33 0.66 0.66 1.32 1 2 C-0.98 4.64 -2.96 7.28 -5 10 C-5.66 9.34 -6.32 8.68 -7 8 C-6.34 8 -5.68 8 -5 8 C-3.79371992 5.66785852 -2.8345262 3.50357861 -2 1 C-1.34 0.67 -0.68 0.34 0 0 Z " fill="#2522C5" transform="translate(622,166)"/>
<path d="M0 0 C1.1725131 0.95117134 2.33787015 1.91117009 3.5 2.875 C4.47453125 3.67550781 4.47453125 3.67550781 5.46875 4.4921875 C5.9740625 4.98976562 6.479375 5.48734375 7 6 C7 6.66 7 7.32 7 8 C6.01 8 5.02 8 4 8 C0 3.77142857 0 3.77142857 0 0 Z " fill="#2526AE" transform="translate(110,132)"/>
<path d="M0 0 C0.33 0.99 0.66 1.98 1 3 C4.63 3 8.26 3 12 3 C12 3.33 12 3.66 12 4 C7.38 4 2.76 4 -2 4 C-1.34 2.68 -0.68 1.36 0 0 Z " fill="#3131BB" transform="translate(42,184)"/>
<path d="M0 0 C4.13333333 6.2 4.13333333 6.2 3.625 9.25 C3.41875 9.8275 3.2125 10.405 3 11 C0.99118063 7.98677094 -0.03927918 5.47337526 -1 2 C-0.67 1.34 -0.34 0.68 0 0 Z " fill="#2524D0" transform="translate(715,116)"/>
<path d="M0 0 C4.455 2.97 4.455 2.97 9 6 C8.34 6.66 7.68 7.32 7 8 C5.8274869 7.04882866 4.66212985 6.08882991 3.5 5.125 C2.8503125 4.59132813 2.200625 4.05765625 1.53125 3.5078125 C1.0259375 3.01023438 0.520625 2.51265625 0 2 C0 1.34 0 0.68 0 0 Z " fill="#312ABF" transform="translate(103,57)"/>
<path d="M0 0 C0.66 0 1.32 0 2 0 C2 0.66 2 1.32 2 2 C3.32 2.33 4.64 2.66 6 3 C5.34 3.66 4.68 4.32 4 5 C3.60235737 6.98821313 3.26224651 8.98944339 3 11 C2.67 11 2.34 11 2 11 C1.34 7.37 0.68 3.74 0 0 Z " fill="#2927D9" transform="translate(290,169)"/>
<path d="M0 0 C0 3.90838866 -1.50567876 5.11594107 -4 8 C-4.99 7.67 -5.98 7.34 -7 7 C-4.69 4.69 -2.38 2.38 0 0 Z " fill="#322FBB" transform="translate(192,112)"/>
<path d="M0 0 C0.33 0 0.66 0 1 0 C1.33 3.3 1.66 6.6 2 10 C1.01 9.01 0.02 8.02 -1 7 C-0.6875 3.3125 -0.6875 3.3125 0 0 Z " fill="#2422BB" transform="translate(152,200)"/>
<path d="M0 0 C0.66 0.66 1.32 1.32 2 2 C1.01 4.64 0.02 7.28 -1 10 C-1.33 10 -1.66 10 -2 10 C-2.17942163 6.05272412 -2.09350689 3.4019487 0 0 Z " fill="#2E28C0" transform="translate(691,173)"/>
<path d="M0 0 C1.98 0 3.96 0 6 0 C5.67 1.32 5.34 2.64 5 4 C3.35 3.67 1.7 3.34 0 3 C0 2.01 0 1.02 0 0 Z " fill="#312BDA" transform="translate(308,144)"/>
<path d="M0 0 C0.33 0.99 0.66 1.98 1 3 C1.66 3 2.32 3 3 3 C3.33 3.99 3.66 4.98 4 6 C1.69 5.34 -0.62 4.68 -3 4 C-2.01 2.68 -1.02 1.36 0 0 Z " fill="#3833E1" transform="translate(475,128)"/>
<path d="" fill="#00007F" transform="translate(0,0)"/>
<path d="" fill="#000000" transform="translate(0,0)"/>
</svg>
